<?xml version="1.0" encoding="UTF-8"?>
<svg xmlns="http://www.w3.org/2000/svg" xmlns:xlink="http://www.w3.org/1999/xlink" viewBox="0 0 668.63 631.57">
  <defs>
    <style>
      .cls-1 {
        fill: #92c110;
      }

      .cls-1, .cls-2, .cls-3, .cls-4, .cls-5, .cls-6, .cls-7, .cls-8 {
        stroke: #00353b;
        stroke-miterlimit: 10;
        stroke-width: .25px;
      }

      .cls-2 {
        fill: url(#radial-gradient-2);
      }

      .cls-2, .cls-3, .cls-5 {
        mix-blend-mode: screen;
      }

      .cls-3 {
        fill: url(#radial-gradient-3);
      }

      .cls-4 {
        fill: #00353b;
      }

      .cls-9 {
        isolation: isolate;
      }

      .cls-5 {
        fill: url(#radial-gradient);
      }

      .cls-6 {
        fill: #deff9f;
      }

      .cls-7 {
        fill: url(#linear-gradient-2);
      }

      .cls-8 {
        fill: url(#linear-gradient);
      }
    </style>
    <linearGradient id="linear-gradient" x1="156.59" y1="445.41" x2="407.68" y2="62.77" gradientUnits="userSpaceOnUse">
      <stop offset="0" stop-color="#004238"/>
      <stop offset=".13" stop-color="#20672e"/>
      <stop offset=".28" stop-color="#408b24"/>
      <stop offset=".41" stop-color="#54a21f"/>
      <stop offset=".48" stop-color="#5cab1d"/>
      <stop offset=".71" stop-color="#70b318"/>
      <stop offset="1" stop-color="#92c110"/>
    </linearGradient>
    <radialGradient id="radial-gradient" cx="257.25" cy="236.31" fx="257.25" fy="236.31" r="131.5" gradientUnits="userSpaceOnUse">
      <stop offset="0" stop-color="#fff"/>
      <stop offset=".45" stop-color="#8d8d8d"/>
      <stop offset="1" stop-color="#000"/>
    </radialGradient>
    <linearGradient id="linear-gradient-2" x1="1231.53" y1="-368.03" x2="1231.53" y2="74.45" gradientTransform="translate(-726.51 528.45) rotate(-6.97)" gradientUnits="userSpaceOnUse">
      <stop offset="0" stop-color="#92c110"/>
      <stop offset=".29" stop-color="#70b318"/>
      <stop offset=".52" stop-color="#5cab1d"/>
      <stop offset=".59" stop-color="#54a21f"/>
      <stop offset=".72" stop-color="#408b24"/>
      <stop offset=".87" stop-color="#20672e"/>
      <stop offset="1" stop-color="#004238"/>
    </linearGradient>
    <radialGradient id="radial-gradient-2" cx="177.41" cy="91.42" fx="177.41" fy="91.42" r="252.23" gradientUnits="userSpaceOnUse">
      <stop offset="0" stop-color="#fff"/>
      <stop offset=".45" stop-color="#8d8d8d"/>
      <stop offset="1" stop-color="#000"/>
    </radialGradient>
    <radialGradient id="radial-gradient-3" cx="1186.59" cy="-18.84" fx="1186.59" fy="-18.84" r="220.24" gradientTransform="translate(-726.51 528.45) rotate(-6.97)" gradientUnits="userSpaceOnUse">
      <stop offset="0" stop-color="#73cf47"/>
      <stop offset=".55" stop-color="#355f20"/>
      <stop offset="1" stop-color="#000"/>
    </radialGradient>
  </defs>
  <g class="cls-9">
    <g id="Layer_1" data-name="Layer 1">
      <g>
        <g>
          <g>
            <path class="cls-1" d="M118.71,526.22h-22.67l-3.61-9.69h-38.33l-3.81,9.69h-22.67l29.88-72.13h32.35l28.85,72.13ZM72.03,470.88l-11.44,29.16h25.66l-10.92-29.16h-3.3Z"/>
            <path class="cls-1" d="M163.12,465.94h1.85c9.96,0,17.26,2.28,21.9,6.85,4.64,4.57,6.96,12.62,6.96,24.16v29.37h-20.09v-29.37c0-5.08-.86-8.67-2.58-10.77-1.72-2.09-5.19-3.14-10.41-3.14h-6.8c-5.29,0-8.79,1.05-10.51,3.14-1.72,2.1-2.58,5.69-2.58,10.77v29.26h-20.09v-58.84h18.03v9.89c4.26-7.56,12.36-11.33,24.32-11.33Z"/>
            <path class="cls-1" d="M244.41,501.8h19.58c0,8.66-2.44,15.15-7.32,19.47-4.88,4.33-11.92,6.49-21.12,6.49h-1.34c-9.07,0-15.9-2.01-20.51-6.03-4.6-4.02-6.9-10.77-6.9-20.25v-19.17h-7.83v-14.94h7.83v-13.29h20.09v13.29h35.03v14.94h-35.03v19.17c0,6.39,2.85,9.58,8.55,9.58h.62c2.89,0,5-.7,6.34-2.11,1.34-1.41,2.01-3.79,2.01-7.16Z"/>
            <path class="cls-1" d="M312.42,527.76h-12.67c-10.92,0-18.74-2.25-23.44-6.75-4.71-4.5-7.06-12.55-7.06-24.16s2.37-19.68,7.11-24.21c4.74-4.53,12.54-6.8,23.39-6.8h12.67c10.85,0,18.65,2.27,23.39,6.8,4.74,4.53,7.11,12.61,7.11,24.21s-2.35,19.66-7.06,24.16c-4.71,4.5-12.52,6.75-23.44,6.75ZM301.91,510.55h8.35c5.29,0,8.79-1.03,10.51-3.09,1.72-2.06,2.58-5.6,2.58-10.61s-.86-8.67-2.58-10.77c-1.72-2.09-5.22-3.14-10.51-3.14h-8.35c-5.29,0-8.79,1.05-10.51,3.14-1.72,2.1-2.58,5.68-2.58,10.77s.86,8.55,2.58,10.61c1.72,2.06,5.22,3.09,10.51,3.09Z"/>
            <path class="cls-1" d="M392.48,465.94h1.85c9.96,0,17.26,2.28,21.9,6.85,4.64,4.57,6.95,12.62,6.95,24.16v29.37h-20.09v-29.37c0-5.08-.86-8.67-2.58-10.77-1.72-2.09-5.19-3.14-10.41-3.14h-6.8c-5.29,0-8.79,1.05-10.51,3.14-1.72,2.1-2.58,5.69-2.58,10.77v29.26h-20.09v-58.84h18.03v9.89c4.26-7.56,12.36-11.33,24.32-11.33Z"/>
            <path class="cls-1" d="M504.08,491.39v10.92h-53.79c.48,3.09,1.66,5.32,3.56,6.7,1.89,1.37,4.96,2.06,9.22,2.06h10.72c2.13,0,3.93-.19,5.41-.57,1.48-.38,2.58-.86,3.3-1.44.72-.58,1.22-1.13,1.49-1.65.27-.52.41-1.01.41-1.49h19.68c0,7.56-2.51,13.09-7.52,16.59-5.02,3.5-12.67,5.26-22.98,5.26h-12.67c-10.92,0-18.74-2.25-23.44-6.75-4.71-4.5-7.06-12.55-7.06-24.16s2.37-19.68,7.11-24.21c4.74-4.53,12.54-6.8,23.39-6.8h12.67c10.44,0,18.14,1.96,23.08,5.87,4.95,3.92,7.42,10.48,7.42,19.68ZM450.29,491.39h34.11c0-2.95-.94-5.19-2.83-6.7-1.89-1.51-5.17-2.27-9.84-2.27h-8.66c-4.26,0-7.33.71-9.22,2.11-1.89,1.41-3.08,3.69-3.56,6.85Z"/>
            <path class="cls-1" d="M531.38,526.22h-20.09v-77.28h20.09v77.28Z"/>
            <path class="cls-1" d="M559.72,526.22h-20.09v-77.28h20.09v77.28Z"/>
            <path class="cls-1" d="M620.92,494.17v-26.79h20.09v51.01c0,5.63-.58,10.3-1.75,14.01-1.17,3.71-3.01,6.61-5.51,8.71-2.51,2.09-5.46,3.56-8.86,4.38-3.4.82-7.64,1.24-12.73,1.24h-37.61v-17.1h37.61c3.43,0,5.75-.67,6.95-2.01,1.2-1.34,1.8-3.73,1.8-7.16v-4.02c-4.4,5.15-11.82,7.73-22.26,7.73h-1.85c-10.1,0-17.43-2.13-22-6.39-4.57-4.26-6.85-12.12-6.85-23.6v-26.79h20.09v26.79c0,5.08.86,8.67,2.58,10.77,1.72,2.1,5.19,3.14,10.41,3.14h6.8c5.29,0,8.79-1.05,10.51-3.14,1.72-2.09,2.58-5.68,2.58-10.77Z"/>
          </g>
          <g>
            <path class="cls-4" d="M51.41,573.65h3.36c-.02,3.39-.97,5.84-2.86,7.33-1.88,1.49-4.79,2.24-8.73,2.24h-3.98c-4.11,0-7.07-.88-8.87-2.63-1.81-1.75-2.71-4.85-2.71-9.28s.9-7.53,2.71-9.28c1.8-1.75,4.76-2.63,8.87-2.63h3.98c3.94,0,6.85.74,8.73,2.22,1.88,1.48,2.82,3.9,2.82,7.28h-3.36c.02-2.24-.62-3.87-1.93-4.89-1.3-1.02-3.39-1.53-6.26-1.53h-3.98c-3.07,0-5.21.65-6.43,1.94-1.22,1.29-1.83,3.59-1.83,6.9s.61,5.61,1.83,6.9c1.22,1.29,3.36,1.94,6.43,1.94h3.98c2.89,0,4.99-.52,6.28-1.55,1.29-1.03,1.94-2.68,1.94-4.94Z"/>
            <path class="cls-4" d="M68.31,559.39h3.52c4.18,0,7.17.88,8.99,2.63,1.82,1.75,2.72,4.85,2.72,9.28s-.91,7.53-2.72,9.28c-1.82,1.75-4.81,2.63-8.99,2.63h-3.52c-4.18,0-7.17-.88-8.99-2.63-1.82-1.75-2.72-4.85-2.72-9.28s.91-7.53,2.72-9.28c1.82-1.75,4.81-2.63,8.99-2.63ZM68.31,580.14h3.52c3.15,0,5.34-.65,6.54-1.94,1.21-1.29,1.81-3.59,1.81-6.9s-.6-5.61-1.81-6.9c-1.21-1.29-3.39-1.94-6.54-1.94h-3.52c-3.15,0-5.34.65-6.54,1.94-1.21,1.29-1.81,3.59-1.81,6.9s.6,5.61,1.81,6.9c1.21,1.29,3.39,1.94,6.54,1.94Z"/>
            <path class="cls-4" d="M107.66,580.11l-.13-20.23h3.43v22.84h-5.03l-16.41-20.23.13,20.23h-3.43v-22.84h5.03l16.41,20.23Z"/>
            <path class="cls-4" d="M124.6,569.89h5.32c4.02,0,6.92.49,8.7,1.47,1.77.98,2.66,2.62,2.66,4.93s-.92,3.98-2.76,5.16c-1.84,1.17-4.78,1.76-8.83,1.76h-4.18c-4.02,0-7.01-.67-8.96-2.01-1.95-1.34-2.92-3.4-2.92-6.18h3.33c0,3.55,2.69,5.32,8.06,5.32h5.45c2.61,0,4.49-.33,5.64-1,1.15-.66,1.73-1.66,1.73-2.99s-.53-2.2-1.6-2.76c-1.07-.55-2.86-.83-5.38-.83h-5.64c-4.13-.02-7.04-.52-8.73-1.48-1.69-.97-2.53-2.59-2.53-4.88,0-2.52,1.02-4.32,3.05-5.4,2.03-1.08,4.88-1.62,8.53-1.62h3.52c4.02,0,7.01.67,8.96,2.01,1.95,1.34,2.92,3.4,2.92,6.18h-3.36c0-3.55-2.63-5.32-7.9-5.32h-4.76c-5.09,0-7.64,1.37-7.64,4.11,0,1.26.53,2.16,1.6,2.71,1.07.54,2.97.82,5.71.82Z"/>
            <path class="cls-4" d="M142.25,559.88h21.21v2.77h-8.88v20.07h-3.46v-20.07h-8.88v-2.77Z"/>
            <path class="cls-4" d="M184.44,573.32c1.7.2,2.93.66,3.69,1.4.76.74,1.14,1.89,1.14,3.46v4.54h-3.49v-4.37c0-1.39-.39-2.32-1.16-2.79-.77-.47-2.19-.7-4.26-.7h-11.81v7.86h-3.43v-22.84h16.05c2.76,0,4.75.57,5.95,1.71,1.21,1.14,1.81,3.14,1.81,5.99,0,1.83-.35,3.18-1.06,4.06-.71.88-1.85,1.44-3.44,1.68ZM180.33,562.85h-11.78v9.2h11.16c2.22,0,3.73-.28,4.54-.85.8-.57,1.21-1.66,1.21-3.3,0-1.91-.39-3.24-1.16-3.96-.77-.73-2.09-1.09-3.96-1.09Z"/>
            <path class="cls-4" d="M205.78,583.21h-2.94c-3.87,0-6.68-.88-8.44-2.64-1.75-1.76-2.63-4.85-2.63-9.27v-11.42h3.43v11.42c0,3.28.59,5.58,1.76,6.88,1.17,1.31,3.18,1.96,6,1.96h2.71c2.83,0,4.82-.65,5.99-1.96,1.16-1.31,1.75-3.6,1.75-6.88v-11.42h3.46v11.42c0,4.42-.88,7.5-2.63,9.27-1.75,1.76-4.57,2.64-8.47,2.64Z"/>
            <path class="cls-4" d="M243.3,573.65h3.36c-.02,3.39-.97,5.84-2.86,7.33-1.88,1.49-4.79,2.24-8.73,2.24h-.13l-1.66,3.65h-2.61l1.6-3.65h-1.17c-4.11,0-7.07-.88-8.88-2.63-1.81-1.75-2.71-4.85-2.71-9.28s.9-7.53,2.71-9.28c1.81-1.75,4.76-2.63,8.88-2.63h3.98c3.94,0,6.85.74,8.73,2.22,1.88,1.48,2.82,3.9,2.82,7.28h-3.36c.02-2.24-.62-3.87-1.93-4.89-1.31-1.02-3.39-1.53-6.27-1.53h-3.98c-3.07,0-5.21.65-6.43,1.94-1.22,1.29-1.83,3.59-1.83,6.9s.61,5.61,1.83,6.9c1.22,1.29,3.36,1.94,6.43,1.94h3.98c2.89,0,4.99-.52,6.28-1.55,1.29-1.03,1.94-2.68,1.94-4.94Z"/>
            <path class="cls-4" d="M260.21,559.39h3.52c4.18,0,7.17.88,8.99,2.63,1.82,1.75,2.72,4.85,2.72,9.28s-.91,7.53-2.72,9.28c-1.82,1.75-4.81,2.63-8.99,2.63h-3.52c-4.18,0-7.17-.88-8.99-2.63-1.82-1.75-2.72-4.85-2.72-9.28s.91-7.53,2.72-9.28c1.82-1.75,4.81-2.63,8.99-2.63ZM260.21,580.14h3.52c3.15,0,5.34-.65,6.54-1.94,1.21-1.29,1.81-3.59,1.81-6.9s-.6-5.61-1.81-6.9c-1.21-1.29-3.39-1.94-6.54-1.94h-3.52c-3.15,0-5.34.65-6.54,1.94-1.21,1.29-1.81,3.59-1.81,6.9s.6,5.61,1.81,6.9c1.21,1.29,3.39,1.94,6.54,1.94ZM265.49,557.72c-1.07,0-2.29-.31-3.67-.93-1.38-.62-2.39-.93-3.02-.93-.59,0-1.05.16-1.39.47-.34.32-.52.73-.54,1.26h-2.22c.2-2.68,1.41-4.01,3.65-4.01.89,0,2.04.31,3.44.93s2.5.93,3.28.93c1.26,0,1.93-.57,1.99-1.7h2.22c-.11,1.39-.47,2.4-1.09,3.03-.62.63-1.51.95-2.66.95Z"/>
            <path class="cls-4" d="M299.62,559.88v3.07h-18.08v7.02h15.14v2.64h-15.14v7.05h18.4v3.07h-21.83v-22.84h21.5Z"/>
            <path class="cls-4" d="M312.58,569.89h5.32c4.02,0,6.92.49,8.7,1.47,1.77.98,2.66,2.62,2.66,4.93s-.92,3.98-2.76,5.16c-1.84,1.17-4.78,1.76-8.83,1.76h-4.18c-4.02,0-7.01-.67-8.96-2.01-1.95-1.34-2.92-3.4-2.92-6.18h3.33c0,3.55,2.69,5.32,8.06,5.32h5.45c2.61,0,4.49-.33,5.65-1,1.15-.66,1.73-1.66,1.73-2.99s-.53-2.2-1.6-2.76c-1.07-.55-2.86-.83-5.38-.83h-5.64c-4.13-.02-7.04-.52-8.73-1.48-1.69-.97-2.53-2.59-2.53-4.88,0-2.52,1.02-4.32,3.05-5.4,2.03-1.08,4.88-1.62,8.53-1.62h3.52c4.02,0,7.01.67,8.96,2.01,1.95,1.34,2.92,3.4,2.92,6.18h-3.36c0-3.55-2.63-5.32-7.9-5.32h-4.76c-5.09,0-7.64,1.37-7.64,4.11,0,1.26.53,2.16,1.6,2.71,1.07.54,2.97.82,5.71.82Z"/>
            <path class="cls-4" d="M363.18,559.88v3.07h-18.08v7.02h15.14v2.64h-15.14v7.05h18.4v3.07h-21.83v-22.84h21.5Z"/>
            <path class="cls-4" d="M385.93,569.89h5.32c4.02,0,6.92.49,8.7,1.47,1.77.98,2.66,2.62,2.66,4.93s-.92,3.98-2.76,5.16c-1.84,1.17-4.78,1.76-8.83,1.76h-4.18c-4.02,0-7.01-.67-8.96-2.01-1.95-1.34-2.92-3.4-2.92-6.18h3.33c0,3.55,2.69,5.32,8.06,5.32h5.45c2.61,0,4.49-.33,5.64-1,1.15-.66,1.73-1.66,1.73-2.99s-.53-2.2-1.6-2.76c-1.07-.55-2.86-.83-5.38-.83h-5.64c-4.13-.02-7.04-.52-8.73-1.48-1.69-.97-2.53-2.59-2.53-4.88,0-2.52,1.02-4.32,3.05-5.4,2.03-1.08,4.88-1.62,8.53-1.62h3.52c4.02,0,7.01.67,8.96,2.01,1.95,1.34,2.92,3.4,2.92,6.18h-3.36c0-3.55-2.63-5.32-7.9-5.32h-4.76c-5.09,0-7.64,1.37-7.64,4.11,0,1.26.53,2.16,1.6,2.71,1.07.54,2.97.82,5.71.82Z"/>
            <path class="cls-4" d="M426.75,559.88v3.07h-18.08v7.02h15.14v2.64h-15.14v7.05h18.4v3.07h-21.83v-22.84h21.5Z"/>
            <path class="cls-4" d="M448.71,573.32c1.7.2,2.93.66,3.69,1.4.76.74,1.14,1.89,1.14,3.46v4.54h-3.49v-4.37c0-1.39-.39-2.32-1.16-2.79-.77-.47-2.19-.7-4.26-.7h-11.81v7.86h-3.43v-22.84h16.05c2.76,0,4.75.57,5.96,1.71,1.21,1.14,1.81,3.14,1.81,5.99,0,1.83-.35,3.18-1.06,4.06-.71.88-1.85,1.44-3.44,1.68ZM444.59,562.85h-11.78v9.2h11.16c2.22,0,3.73-.28,4.54-.85.8-.57,1.21-1.66,1.21-3.3,0-1.91-.39-3.24-1.16-3.96-.77-.73-2.09-1.09-3.96-1.09Z"/>
            <path class="cls-4" d="M466.46,580.56l9.43-20.69h3.62l-10.57,22.84h-4.96l-10.57-22.84h3.62l9.43,20.69Z"/>
            <path class="cls-4" d="M484.6,582.72h-3.43v-22.84h3.43v22.84Z"/>
            <path class="cls-4" d="M511.06,573.65h3.36c-.02,3.39-.97,5.84-2.86,7.33-1.88,1.49-4.79,2.24-8.73,2.24h-.13l-1.66,3.65h-2.61l1.6-3.65h-1.18c-4.11,0-7.07-.88-8.87-2.63-1.81-1.75-2.71-4.85-2.71-9.28s.9-7.53,2.71-9.28c1.8-1.75,4.76-2.63,8.87-2.63h3.98c3.94,0,6.85.74,8.73,2.22,1.88,1.48,2.82,3.9,2.82,7.28h-3.36c.02-2.24-.62-3.87-1.93-4.89-1.3-1.02-3.39-1.53-6.26-1.53h-3.98c-3.07,0-5.21.65-6.43,1.94-1.22,1.29-1.83,3.59-1.83,6.9s.61,5.61,1.83,6.9c1.22,1.29,3.36,1.94,6.43,1.94h3.98c2.89,0,4.99-.52,6.28-1.55,1.29-1.03,1.94-2.68,1.94-4.94Z"/>
            <path class="cls-4" d="M527.96,559.39h3.52c4.18,0,7.17.88,8.99,2.63,1.82,1.75,2.72,4.85,2.72,9.28s-.91,7.53-2.72,9.28c-1.82,1.75-4.81,2.63-8.99,2.63h-3.52c-4.18,0-7.17-.88-8.99-2.63-1.82-1.75-2.72-4.85-2.72-9.28s.91-7.53,2.72-9.28c1.82-1.75,4.81-2.63,8.99-2.63ZM527.96,580.14h3.52c3.15,0,5.34-.65,6.54-1.94,1.21-1.29,1.81-3.59,1.81-6.9s-.6-5.61-1.81-6.9c-1.21-1.29-3.39-1.94-6.54-1.94h-3.52c-3.15,0-5.34.65-6.54,1.94-1.21,1.29-1.81,3.59-1.81,6.9s.6,5.61,1.81,6.9c1.21,1.29,3.39,1.94,6.54,1.94Z"/>
            <path class="cls-4" d="M556.19,569.89h5.32c4.02,0,6.92.49,8.7,1.47,1.77.98,2.66,2.62,2.66,4.93s-.92,3.98-2.76,5.16c-1.84,1.17-4.78,1.76-8.83,1.76h-4.18c-4.02,0-7.01-.67-8.96-2.01-1.95-1.34-2.92-3.4-2.92-6.18h3.33c0,3.55,2.69,5.32,8.06,5.32h5.45c2.61,0,4.49-.33,5.64-1,1.15-.66,1.73-1.66,1.73-2.99s-.53-2.2-1.6-2.76c-1.07-.55-2.86-.83-5.38-.83h-5.64c-4.13-.02-7.04-.52-8.73-1.48-1.69-.97-2.53-2.59-2.53-4.88,0-2.52,1.02-4.32,3.05-5.4,2.03-1.08,4.88-1.62,8.53-1.62h3.52c4.02,0,7.01.67,8.96,2.01,1.95,1.34,2.92,3.4,2.92,6.18h-3.36c0-3.55-2.63-5.32-7.9-5.32h-4.76c-5.09,0-7.64,1.37-7.64,4.11,0,1.26.53,2.16,1.6,2.71,1.07.54,2.97.82,5.71.82Z"/>
          </g>
        </g>
        <g>
          <path class="cls-8" d="M400.91,175.6c-24.9-.4-39.26,21.97-47.25,34.83l-56.55,90.81-24.41,39.18-8.56,13.74-34.5,55.39h-106.52l43.07-69.13,147.63-237.06c16.92-27.17,42.04-47.52,71.04-58.66l14.88,121.38,1.17,9.52Z"/>
          <path class="cls-5" d="M400.91,175.6c-24.9-.4-39.26,21.97-47.25,34.83l-56.55,90.81-24.41,39.18-8.56,13.74-34.5,55.39h-8.47s99.38-154.92,121.03-193.76c11.39-20.45,22.08-33.1,32.59-40.22,13.16-8.91,24.94-9.49,24.94-9.49l1.17,9.52Z"/>
          <path class="cls-7" d="M455.2,44.7c36.72,0,57.26,19.02,60.93,49l28.82,235.76c4.87,39.87-22.83,75.22-62.7,80.09h-37.69l-43.65-364.85h54.29Z"/>
          <path class="cls-2" d="M369.86,61.31c-6.76,4.08-13.41,8.36-19.55,13.4-11.48,9.43-21.28,20.61-29.14,33.23l-147.63,237.07-40.21,64.55-.05.08h39.59l.05-.08h48.25c-14.47-1.1-25.86-13.19-25.86-27.94,0-5.21,1.42-10.09,3.9-14.27,0,0,0,0,0,0l.66-1.06s0,0,0,0l10.4-16.69,8.55-13.74,24.41-39.19,103.07-165.54c5.91-9.49,13.51-17.87,21.96-25.22,7.83-6.82,22.92-9.61,22.92-9.61l-5.11-41.66s-10.18,3.03-16.22,6.68Z"/>
          <path class="cls-3" d="M455.2,46.05c29.98-3.67,57.26,17.67,60.93,47.65l28.82,235.76c4.87,39.87-22.83,75.22-62.7,80.09h-37.69c56.79-6.94,45.22-80.65,45.22-80.65l-34.58-282.85h0Z"/>
          <path class="cls-6" d="M445.19,409.56c43.34-5.28,48.65-56.73,42.7-91.62-7.98-62.73-15.79-126.71-21.97-189.55,9.15,62.45,16.98,126.45,24.34,189.23,5.55,35.34-.82,87.99-45.07,91.94h0Z"/>
        </g>
      </g>
    </g>
  </g>
</svg>
