<?xml version="1.0" encoding="UTF-8"?>
<svg id="Camada_2" data-name="Camada 2" xmlns="http://www.w3.org/2000/svg" viewBox="0 0 1935.61 267.38">
  <defs>
    <style>
      .cls-1 {
        fill-rule: evenodd;
      }

      .cls-1, .cls-2, .cls-3 {
        fill: #17130f;
      }

      .cls-4, .cls-3 {
        isolation: isolate;
      }

      .cls-3 {
        font-family: Arial-BoldMT, Arial;
        font-size: 46.64px;
        font-weight: 700;
      }
    </style>
  </defs>
  <g id="Camada_1-2" data-name="Camada 1">
    <path class="cls-2" d="M.1,30.52v192.64c0,2.63,2.16,4.79,4.79,4.79h41.58c2.58,0,4.68-2.1,4.68-4.68v-94.56c0-3.75,2.01-7.2,5.27-9.05l67.45-38.27c2.08-1.18,3.36-3.39,3.36-5.78V29.99c0-1.82-1.49-3.31-3.31-3.31H3.25c-1.79,0-3.25,1.48-3.25,3.31"/>
    <path class="cls-2" d="M126.26,93.11v130.28c0,2.5,2.04,4.55,4.55,4.55h65.95c2.02,0,3.66-1.64,3.66-3.66v-96.14c0-1.7-.91-3.27-2.41-4.11l-63.87-35.97c-3.53-1.99-7.88.62-7.88,4.75"/>
    <path class="cls-2" d="M200.74,53.47c0,14.6-11.84,26.44-26.45,26.44s-26.44-11.84-26.44-26.44,11.84-26.45,26.44-26.45,26.45,11.85,26.45,26.45"/>
    <path class="cls-2" d="M721.37,71.72l-10.86,6.02c-.99.55-1.6,1.59-1.6,2.72v15.37c0,1.69,1.37,3.06,3.06,3.06h21.79c1.69,0,3.07-1.37,3.07-3.06v-15.37c0-1.13-.62-2.17-1.6-2.72l-10.87-6.02c-.92-.51-2.06-.51-2.99,0"/>
    <path class="cls-2" d="M449.24,113.6c0,19.45-16.99,32.48-43.37,32.48h-46.94c-.86,0-1.55-.69-1.55-1.55V27.25c0-.86.7-1.55,1.56-1.55h44.78c26.72,0,42.38,14.84,42.38,33.31,0,11.7-6.7,20.13-16.31,25.14v.81c11.12,5.21,19.43,14.65,19.43,28.64M380.5,45.93v29.83c0,.54.45.99.99.99h20.75c12.02,0,20.74-7.24,20.74-16.14s-8.22-15.64-20.09-15.64h-21.41c-.54,0-.99.44-.99.99M425.75,111.49c0-11.02-10.54-16.45-22.87-16.45h-21.39c-.55,0-.99.44-.99.99v30.75c0,.55.45,1,1,1h22.7c13.99,0,21.55-7.09,21.55-16.29"/>
    <path class="cls-2" d="M578.16,124.97l11.21,12.21c.94,1.03.85,2.65-.23,3.56l-10.34,8.75c-1,.85-2.5.76-3.41-.2l-11.34-12.21c-10.12,6.31-22.57,9.79-36.35,9.79-37.35,0-64.89-26.39-64.89-62.74s27.54-61.73,64.89-61.73,65.05,26.21,65.05,61.73c0,16.1-5.31,30.05-14.6,40.83M548.95,120.31l-14.67-15.84c-.96-1.04-.86-2.68.22-3.58l10.47-8.75c1.02-.85,2.52-.75,3.42.23l13.67,15c3.7-6,5.82-13.27,6.11-21.3.84-22.81-17.64-42.59-40.46-42.59s-40.32,16.76-40.32,40.65,16.59,41.66,40.32,41.66c7.96,0,15.1-1.99,21.25-5.48"/>
    <path class="cls-2" d="M667.03,109.14c-6.91,2.72-14.73,4.19-23.11,4.19h-13.98v32.1c0,.89-.73,1.61-1.62,1.61h-20.84c-.9,0-1.62-.72-1.62-1.62V27.3c0-.89.71-1.61,1.61-1.61h36.45c28.91,0,51.52,17.45,51.52,43.89M695.44,69.46c0,18.34-11.37,32.63-28.41,39.35M670.78,69.21c0-13.95-11.46-24.25-26.56-24.25h-12.66c-.9,0-1.62.73-1.62,1.63v44.91c0,.9.72,1.62,1.62,1.62h12.66c15.27,0,26.56-10.62,26.56-23.9"/>
    <path class="cls-2" d="M856.25,28.59v115.69c0,.99-.81,1.8-1.8,1.8h-19.51c-.99,0-1.8-.81-1.8-1.8v-44.89c0-.81-.65-1.46-1.46-1.46h-56.77c-.81,0-1.47.66-1.47,1.47v44.88c0,.99-.81,1.8-1.8,1.8h-20.47c-.99,0-1.8-.81-1.8-1.8V28.46c0-.99.81-1.8,1.8-1.8h20.47c.99,0,1.8.81,1.8,1.8v46.81c0,.81.65,1.46,1.46,1.46h56.78c.8,0,1.46-.66,1.46-1.46V28.47c0-1,.81-1.81,1.81-1.81h19.68c.99,0,1.8.81,1.8,1.81"/>
    <path class="cls-2" d="M343.78,69.79c0,25.76-22.44,43.54-51.52,43.54h-13.84v32.09c0,.9-.72,1.62-1.62,1.62h-20.84c-.9,0-1.62-.72-1.62-1.61V27.3c0-.89.72-1.61,1.61-1.61h36.31c28.92,0,51.52,17.45,51.52,43.89M319.26,69.21c0-13.95-11.45-24.25-26.56-24.25h-12.66c-.9,0-1.62.73-1.62,1.62v44.92c0,.9.73,1.62,1.62,1.62h12.66c15.27,0,26.56-10.62,26.56-23.9"/>
    <path class="cls-2" d="M268.15,178.73c0,4.44-3.9,7.8-9.15,7.8h-2.74v6.74h-2.89v-22.15h5.62c5.19,0,9.15,3.05,9.15,7.7M265.32,178.3c0-3.23-2.7-5.25-6.23-5.25h-2.82v10.59h2.82c3.59,0,6.23-2.34,6.23-5.34"/>
    <path class="cls-2" d="M282.05,193.24l-7.48-7.82v6.89h-2.89v-21.19h5.22c5.03,0,8.74,2.94,8.74,7.27,0,3.91-3.15,6.58-7.6,6.97l7.86,7.91-3.85-.03h0ZM274.57,174.01v8.67h2.26c3.44,0,5.66-1.66,5.66-4.26s-2.22-4.41-5.69-4.41h-2.23Z"/>
    <path class="cls-2" d="M300.71,170.48c6.42,0,11.58,4.59,11.58,11.18s-5.15,11.32-11.58,11.32-11.54-4.62-11.54-11.32,5.15-11.18,11.54-11.18M300.71,190.39c4.77,0,8.58-3.51,8.58-8.73s-3.81-8.6-8.58-8.6-8.55,3.48-8.55,8.6,3.81,8.73,8.55,8.73"/>
    <path class="cls-2" d="M337.17,183.49c-.39,5.52-4.4,9.48-10.47,9.48s-11.48-4.65-11.48-11.34,5.25-11.16,11.48-11.16c5.4,0,10.03,8.35,10.03,8.35h-2.59c-.47-3.37-3.11-5.81-7.04-5.81-4.44,0-8.21,3.34-8.21,8.37s3.78,8.39,8.21,8.39c3.98,0,6.54-2,7.12-5.17h-6.67v-1.93h9.63v.82h0Z"/>
    <path class="cls-2" d="M351.39,193.24l-7.48-7.82v6.89h-2.89v-21.19h5.22c5.04,0,8.74,2.94,8.74,7.27,0,3.91-3.15,6.58-7.6,6.97l7.86,7.91-3.85-.03h0ZM343.91,174.01v8.67h2.26c3.44,0,5.66-1.66,5.66-4.26s-2.22-4.41-5.69-4.41h-2.23Z"/>
    <path class="cls-2" d="M374.74,193.27l-1.94-5.12v-.65h-10.66l-1.92,5.78h-3.45l8.79-22.15h3.52l8.8,22.15h-3.16.02ZM371.97,184.6l-4.34-11.46-4.41,11.46h8.75Z"/>
    <polygon class="cls-2" points="402.65 171.12 402.65 193.27 399.76 193.27 399.76 175.58 392.57 185.57 390.98 185.57 384.35 175.67 384.35 193.27 381.47 193.27 381.47 171.12 384.05 171.12 392.04 183.2 400.1 171.12 402.65 171.12"/>
    <path class="cls-2" d="M422.89,193.27l-1.94-5.12v-.65h-10.6l-1.92,5.78h-3.51l8.79-22.15h3.52l8.8,22.15h-3.16.02ZM420.18,184.6l-4.34-11.46-4.41,11.46h8.75Z"/>
    <path class="cls-2" d="M456.02,187.38c0,3.37-2.76,5.89-7.59,5.89h-8.22v-22.15h7.56c4.8,0,7.62,2.3,7.62,5.85,0,2.24-1.34,3.94-3.43,4.86,2.27.82,4.06,2.54,4.06,5.55M443.1,173.05v6.74h4.41c2.63,0,4.58-1.45,4.58-3.42,0-2.27-1.78-3.32-4.6-3.32h-4.39ZM453.33,186.64c0-3.22-3.15-3.96-5.46-3.96h-4.78v7.7h5.28c3.3,0,4.96-1.66,4.96-3.75"/>
    <path class="cls-2" d="M470.82,193.24l-7.49-7.82v6.89h-2.89v-21.19h5.22c5.05,0,8.75,2.94,8.75,7.27,0,3.91-3.15,6.58-7.6,6.97l7.87,7.91-3.86-.03ZM463.32,174.01v8.67h2.26c3.44,0,5.66-1.66,5.66-4.26s-2.22-4.41-5.69-4.41h-2.23Z"/>
    <path class="cls-2" d="M494.16,193.27l-1.95-5.12v-.65h-10.56l-1.92,5.78h-3.54l8.8-22.15h3.52l8.8,22.15h-3.16,0ZM491.49,184.6l-4.35-11.46-4.41,11.46h8.76,0Z"/>
    <path class="cls-2" d="M501.39,186.53c.85,2.74,3.09,4.05,5.76,4.05s4.7-1.44,4.7-3.39c0-5.42-12.21-2.63-12.21-10.87,0-3.46,3-5.82,7.27-5.82s7.03,2.67,7.78,6.39h-2.9c-.7-2.27-2.4-3.77-4.88-3.77s-4.31,1.27-4.31,3.19c0,5.6,12.24,3,12.24,10.82,0,3.71-3.51,6.09-7.69,6.09-4.49,0-7.69-2.53-8.75-6.69h3-.01Z"/>
    <rect class="cls-2" x="519.18" y="171.12" width="2.89" height="22.15"/>
    <polygon class="cls-2" points="542.3 190.38 542.3 193.27 528.81 193.27 528.81 171.12 531.7 171.12 531.7 190.38 542.3 190.38"/>
    <polygon class="cls-2" points="557.7 190.38 557.7 193.27 545.18 193.27 545.18 171.12 557.7 171.12 557.7 173.05 548.07 173.05 548.07 180.75 556.74 180.75 556.74 183.64 548.07 183.64 548.07 190.38 557.7 190.38"/>
    <rect class="cls-2" x="562.52" y="171.12" width="2.89" height="22.15"/>
    <path class="cls-2" d="M581.57,193.24l-7.49-7.82v6.89h-2.89v-21.19h5.22c5.05,0,8.75,2.94,8.75,7.27,0,3.91-3.15,6.58-7.6,6.97l7.87,7.91-3.86-.03ZM574.08,174.01v8.67h2.26c3.44,0,5.66-1.66,5.66-4.26s-2.22-4.41-5.69-4.41h-2.23Z"/>
    <path class="cls-2" d="M599.96,170.48c6.41,0,11.58,4.59,11.58,11.18s-5.16,11.32-11.58,11.32-11.54-4.62-11.54-11.32,5.15-11.18,11.54-11.18M599.96,190.39c4.77,0,8.58-3.51,8.58-8.73s-3.81-8.6-8.58-8.6-8.55,3.48-8.55,8.6,3.81,8.73,8.55,8.73"/>
    <path class="cls-2" d="M646.67,182.2c0,6.61-4.95,11.08-11.4,11.08h-8.22v-22.15h8.22c6.48,0,11.4,4.55,11.4,11.08M643.04,181.25c0-5.37-3.82-8.2-8.05-8.2h-5.06v16.37h5.06c4.23,0,8.05-2.84,8.05-8.18"/>
    <path class="cls-2" d="M697.73,189.41l2.31,2.64-1.9,1.59-2.33-2.61c-1.89,1.25-4.2,1.95-6.68,1.95-6.39,0-11.55-4.61-11.55-11.31s5.15-11.18,11.55-11.18,11.58,4.58,11.58,11.18c0,3.12-1.11,5.8-2.98,7.74M693.98,188.98l-3.75-4.22,1.96-1.69,3.65,4.21c1.17-1.47,1.86-3.39,1.86-5.61,0-5.12-3.8-8.6-8.57-8.6s-8.55,3.48-8.55,8.6,3.81,8.73,8.55,8.73c1.79,0,3.48-.51,4.85-1.42"/>
    <path class="cls-2" d="M705.05,171.12h2.89v12.87c0,3.9,2.52,6.63,6.26,6.63s6.26-2.58,6.26-6.63v-12.87h2.89v12.68c0,5.53-3.65,9.51-9.15,9.51s-9.15-3.81-9.15-9.51v-12.68Z"/>
    <path class="cls-2" d="M743.58,193.27l-1.94-5.12v-.65h-11.25l-1.92,5.78h-2.86l8.79-22.15h3.53l8.79,22.15h-3.16.02ZM740.24,184.6l-4.35-11.46-4.41,11.46h8.76,0Z"/>
    <polygon class="cls-2" points="762.83 190.38 762.83 193.27 749.35 193.27 749.35 171.12 752.24 171.12 752.24 190.38 762.83 190.38"/>
    <rect class="cls-2" x="766.68" y="171.12" width="2.89" height="22.15"/>
    <path class="cls-2" d="M794.98,182.2c0,6.61-4.95,11.08-11.41,11.08h-8.21v-22.15h8.21c6.49,0,11.41,4.55,11.41,11.08M791.35,181.25c0-5.37-3.82-8.2-8.06-8.2h-5.05v16.37h5.05c4.24,0,8.06-2.84,8.06-8.18"/>
    <path class="cls-2" d="M813.89,193.27l-1.94-5.12v-.65h-10.62l-1.91,5.78h-3.5l8.79-22.15h3.53l8.79,22.15h-3.16.02ZM811.17,184.6l-4.35-11.46-4.41,11.46h8.76,0Z"/>
    <path class="cls-2" d="M840.24,182.2c0,6.61-4.95,11.08-11.41,11.08h-8.21v-22.15h8.21c6.49,0,11.41,4.55,11.41,11.08M836.61,181.25c0-5.37-3.82-8.2-8.06-8.2h-5.05v16.37h5.05c4.24,0,8.06-2.84,8.06-8.18"/>
    <polygon class="cls-2" points="857.21 190.38 857.21 193.27 844.69 193.27 844.69 171.12 857.21 171.12 857.21 173.05 847.58 173.05 847.58 180.75 856.25 180.75 856.25 183.64 847.58 183.64 847.58 190.38 857.21 190.38"/>
    <polygon class="cls-2" points="265.9 223.13 265.9 226.01 253.38 226.01 253.38 203.86 265.9 203.86 265.9 206.75 256.27 206.75 256.27 213.5 264.94 213.5 264.94 216.38 256.27 216.38 256.27 223.13 265.9 223.13"/>
    <path class="cls-2" d="M296.26,212.44c0,4.44-3.9,7.8-9.15,7.8h-2.91v5.78h-2.89v-22.15h5.8c5.19,0,9.15,3.06,9.15,7.7M293.25,212c0-3.22-2.7-5.25-6.23-5.25h-2.82v10.59h2.82c3.59,0,6.23-2.33,6.23-5.34"/>
    <path class="cls-2" d="M310.94,225.98l-7.48-7.81v7.85h-2.89v-22.15h5.22c5.03,0,8.74,2.94,8.74,7.27,0,3.91-3.15,6.57-7.61,6.97l7.87,7.91-3.85-.04h0ZM303.46,206.75v8.67h2.26c3.43,0,5.66-1.66,5.66-4.26s-2.23-4.41-5.69-4.41h-2.23Z"/>
    <path class="cls-2" d="M328.81,203.99c6.41,0,11.58,4.59,11.58,11.18s-5.16,11.32-11.58,11.32-11.54-4.62-11.54-11.32,5.15-11.18,11.54-11.18M328.81,223.91c4.77,0,8.58-3.51,8.58-8.73s-3.81-8.6-8.58-8.6-8.55,3.48-8.55,8.6,3.81,8.73,8.55,8.73"/>
    <path class="cls-2" d="M364.5,214.93c0,6.62-4.94,11.08-11.41,11.08h-8.22v-22.15h8.22c6.49,0,11.41,4.55,11.41,11.07M360.86,214.95c0-5.36-3.82-8.2-8.06-8.2h-5.05v16.37h5.05c4.24,0,8.06-2.84,8.06-8.18"/>
    <path class="cls-2" d="M367.98,203.86h2.89v12.87c0,3.89,2.51,6.63,6.26,6.63s6.26-2.58,6.26-6.63v-12.87h2.89v12.68c0,5.52-3.65,9.51-9.15,9.51s-9.15-3.81-9.15-9.51v-12.68h0Z"/>
    <polygon class="cls-2" points="406.5 206.75 399.76 206.75 399.76 226.01 396.87 226.01 396.87 206.75 390.13 206.75 390.13 203.86 406.5 203.86 406.5 206.75"/>
    <rect class="cls-2" x="410.36" y="203.87" width="2.89" height="22.15"/>
    <polygon class="cls-2" points="436.84 203.86 428.19 226.01 424.95 226.01 415.98 203.86 419.32 203.86 426.61 223.01 433.71 203.86 436.84 203.86"/>
    <rect class="cls-2" x="440.21" y="203.87" width="2.89" height="22.15"/>
    <path class="cls-2" d="M468.51,214.93c0,6.62-4.95,11.08-11.4,11.08h-8.22v-22.15h8.22c6.49,0,11.4,4.55,11.4,11.07M464.88,214.95c0-5.36-3.82-8.2-8.06-8.2h-5.05v16.37h5.05c4.24,0,8.06-2.84,8.06-8.18"/>
    <path class="cls-2" d="M487.42,226.01l-1.95-5.12v.31h-10.47l-1.84,4.82h-3.71l8.79-22.15h3.52l8.8,22.15h-3.16.02ZM484.35,218.31l-4.35-11.46-4.4,11.46h8.75Z"/>
    <path class="cls-2" d="M513.78,214.93c0,6.62-4.95,11.08-11.41,11.08h-8.22v-22.15h8.22c6.49,0,11.41,4.55,11.41,11.07M510.14,214.95c0-5.36-3.82-8.2-8.06-8.2h-5.05v16.37h5.05c4.24,0,8.06-2.84,8.06-8.18"/>
    <polygon class="cls-2" points="529.78 223.13 529.78 226.01 517.26 226.01 517.26 203.86 529.78 203.86 529.78 206.75 520.14 206.75 520.14 213.5 528.81 213.5 528.81 216.38 520.14 216.38 520.14 223.13 529.78 223.13"/>
    <path class="cls-2" d="M564.82,214.93c0,6.62-4.96,11.08-11.41,11.08h-8.22v-22.15h8.22c6.49,0,11.41,4.55,11.41,11.07M562.14,214.95c0-5.36-3.82-8.2-8.06-8.2h-5.05v16.37h5.05c4.24,0,8.06-2.84,8.06-8.18"/>
    <path class="cls-2" d="M579.56,203.99c6.41,0,11.58,4.59,11.58,11.18s-5.16,11.32-11.58,11.32-11.55-4.62-11.55-11.32,5.16-11.18,11.55-11.18M579.56,223.91c4.77,0,8.58-3.51,8.58-8.73s-3.81-8.6-8.58-8.6-8.55,3.48-8.55,8.6,3.81,8.73,8.55,8.73"/>
    <polygon class="cls-2" points="626.08 203.86 626.08 226.01 623.19 226.01 623.19 216.38 609.71 216.38 609.71 226.01 606.82 226.01 606.82 203.86 609.71 203.86 609.71 213.5 623.19 213.5 623.19 203.86 626.08 203.86"/>
    <path class="cls-2" d="M646.32,226.01l-1.95-5.12v.31h-10.47l-1.84,4.82h-3.72l8.8-22.15h3.52l8.8,22.15h-3.16.02ZM643.7,218.31l-4.35-11.46-4.41,11.46h8.76,0Z"/>
    <path class="cls-2" d="M668.86,220.13c0,3.37-2.77,5.88-7.59,5.88h-8.22v-22.15h7.56c4.79,0,7.61,2.31,7.61,5.86,0,2.24-1.34,3.95-3.43,4.85,2.27.83,4.07,2.55,4.07,5.56M655.93,206.75v6.74h4.41c2.63,0,4.58-1.45,4.58-3.41,0-2.28-1.78-3.33-4.61-3.33h-4.38ZM666.17,220.34c0-3.22-3.15-3.96-5.46-3.96h-4.78v7.7h5.28c3.3,0,4.96-1.66,4.96-3.75"/>
    <rect class="cls-2" x="673.27" y="203.87" width="2.89" height="22.15"/>
    <polygon class="cls-2" points="696.38 206.75 689.64 206.75 689.64 226.01 686.75 226.01 686.75 206.75 680.01 206.75 680.01 203.86 696.38 203.86 696.38 206.75"/>
    <path class="cls-2" d="M712.77,226.01l-1.95-5.12v.31h-10.47l-1.84,4.82h-3.71l8.79-22.15h3.53l8.8,22.15h-3.16.01ZM709.66,218.31l-4.35-11.46-4.41,11.46h8.76,0Z"/>
    <polygon class="cls-2" points="731.05 206.75 724.31 206.75 724.31 226.01 721.42 226.01 721.42 206.75 714.68 206.75 714.68 203.86 731.05 203.86 731.05 206.75"/>
    <path class="cls-2" d="M664.62,193.27l-1.95-5.12v-.65h-11.01l-1.92,5.78h-3.1l8.8-22.15h3.53l8.79,22.15h-3.15.01ZM661.51,184.6l-4.35-11.46-4.41,11.46h8.76,0Z"/>
    <path class="cls-1" d="M1737.44,141.26h24.08V63.25h-24.08v78.01ZM1746.48,53.92c8.75-16.32,21.82-30,37.64-39.48,15.31-9.16,33.24-14.44,52.35-14.44s37.05,5.28,52.35,14.44c15.82,9.48,28.89,23.15,37.64,39.48l-6.44,3.45c-5.28-9.85-12.26-18.68-20.56-26.06-6.99,5.49-14.73,10.1-23.05,13.63l2.72,9.84-7.1,1.73-2.46-8.95c-10.39,3.55-21.54,5.5-33.1,5.5s-22.71-1.95-33.09-5.5l-2.46,8.95-7.1-1.73,2.72-9.84c-8.31-3.52-16.05-8.14-23.05-13.63-8.3,7.38-15.28,16.21-20.56,26.06l-6.45-3.45ZM1787.89,20.74c-2.98,1.77-5.84,3.72-8.59,5.79,6.02,4.58,12.6,8.45,19.62,11.48,3.33-8.92,7.35-16.58,11.88-22.59,1.6-2.14,3.27-4.09,5.01-5.8-10.01,2.22-19.42,6.02-27.92,11.12M1885.07,20.74c-8.51-5.1-17.91-8.9-27.92-11.12,1.72,1.7,3.41,3.66,5.01,5.8,4.54,6.01,8.54,13.68,11.88,22.59,7.02-3.03,13.6-6.9,19.62-11.48-2.75-2.07-5.61-4.02-8.59-5.79M1926.46,150.22c-8.74,16.32-21.81,30-37.64,39.49-15.3,9.16-33.23,14.44-52.35,14.44s-37.04-5.28-52.35-14.44c-15.81-9.49-28.88-23.16-37.64-39.49l6.45-3.43c5.28,9.84,12.26,18.65,20.56,26.05,6.98-5.49,14.73-10.09,23.05-13.63l-2.72-9.85,7.1-1.71,2.46,8.94c10.39-3.56,21.55-5.52,33.09-5.52s22.69,1.96,33.1,5.52l2.46-8.94,7.1,1.71-2.72,9.85c8.31,3.53,16.06,8.14,23.05,13.63,8.3-7.4,15.28-16.21,20.56-26.05l6.44,3.43ZM1885.07,183.42c2.98-1.78,5.85-3.73,8.59-5.81-6.01-4.56-12.6-8.43-19.62-11.47-3.34,8.92-7.35,16.58-11.88,22.59-1.6,2.14-3.28,4.08-5.01,5.81,10.01-2.23,19.41-6.03,27.92-11.12M1787.89,183.42c8.5,5.09,17.91,8.89,27.92,11.12-1.73-1.72-3.41-3.67-5.01-5.81-4.54-6.01-8.55-13.68-11.88-22.59-7.02,3.04-13.61,6.91-19.62,11.47,2.74,2.08,5.61,4.03,8.59,5.81M1836.47,158.42c-10.78,0-21.13,1.8-30.74,5.09,3.08,8.27,6.78,15.33,10.92,20.84,5.91,7.89,12.73,12.44,19.82,12.44s13.91-4.56,19.83-12.44c4.14-5.51,7.84-12.57,10.92-20.84-9.61-3.29-19.96-5.09-30.75-5.09M1836.47,45.71c10.8,0,21.16-1.79,30.75-5.08-3.08-8.26-6.78-15.33-10.92-20.84-5.92-7.89-12.73-12.44-19.83-12.44s-13.91,4.56-19.82,12.44c-4.14,5.51-7.84,12.58-10.92,20.84,9.59,3.28,19.95,5.08,30.74,5.08M1808.29,142.66c21.06,0,33.88-10.01,33.88-27.29,0-29.17-43.65-22.82-43.65-30.24,0-1.99,1.29-3.52,6.01-3.52,7.4,0,16.23,2.59,23.06,7.76l12.7-16.81c-8.95-7.3-20.47-10.94-33.29-10.94-21.52,0-32.59,12.7-32.59,25.99,0,30.94,43.77,23.3,43.77,30.83,0,3.05-4.25,4.24-8.72,4.24-10.58,0-19.42-4.48-25.29-10.12l-12.36,17.64c8.35,7.54,19.77,12.47,36.47,12.47M1892.67,142.66c24.23,0,42.94-16.47,42.94-40.59s-18.71-40.58-42.94-40.58-42.94,16.47-42.94,40.58,18.7,40.59,42.94,40.59M1892.67,121.71c-11.41,0-18.82-8.71-18.82-19.65s7.41-19.64,18.82-19.64,18.83,8.7,18.83,19.64-7.42,19.65-18.83,19.65"/>
    <g class="cls-4">
      <text class="cls-3" transform="translate(1704.2582 249.8209)"><tspan x="0" y="0">9001:2015</tspan></text>
    </g>
    <g class="cls-4">
      <text class="cls-3" transform="translate(944.64 249.82)"><tspan x="0" y="0">45001:2015</tspan></text>
    </g>
    <path class="cls-1" d="M993.01,141.26h24.08V63.25h-24.08v78.01ZM1002.4,53.92c8.75-16.32,21.82-30,37.64-39.48,15.31-9.16,33.24-14.44,52.35-14.44s37.04,5.28,52.35,14.44c15.82,9.48,28.89,23.15,37.64,39.48l-6.44,3.45c-5.28-9.85-12.27-18.68-20.56-26.06-6.99,5.49-14.73,10.1-23.05,13.63l2.72,9.84-7.1,1.73-2.46-8.95c-10.39,3.55-21.54,5.5-33.1,5.5s-22.71-1.95-33.09-5.5l-2.46,8.95-7.1-1.73,2.72-9.84c-8.31-3.52-16.05-8.14-23.06-13.63-8.29,7.38-15.27,16.21-20.55,26.06l-6.45-3.45ZM1043.8,20.74c-2.98,1.77-5.84,3.72-8.6,5.79,6.03,4.58,12.61,8.45,19.63,11.48,3.33-8.92,7.35-16.58,11.88-22.59,1.6-2.14,3.27-4.09,5.01-5.8-10.01,2.22-19.42,6.02-27.92,11.12M1140.98,20.74c-8.51-5.1-17.91-8.9-27.92-11.12,1.72,1.7,3.4,3.66,5.01,5.8,4.54,6.01,8.54,13.68,11.88,22.59,7.02-3.03,13.6-6.9,19.62-11.48-2.75-2.07-5.61-4.02-8.59-5.79M1182.37,150.22c-8.74,16.32-21.81,30-37.64,39.49-15.31,9.16-33.23,14.44-52.35,14.44s-37.04-5.28-52.35-14.44c-15.81-9.49-28.88-23.16-37.64-39.49l6.45-3.43c5.28,9.84,12.26,18.65,20.55,26.05,6.99-5.49,14.74-10.09,23.06-13.63l-2.72-9.85,7.1-1.71,2.46,8.94c10.39-3.56,21.55-5.52,33.09-5.52s22.69,1.96,33.1,5.52l2.46-8.94,7.1,1.71-2.72,9.85c8.31,3.53,16.06,8.14,23.05,13.63,8.29-7.4,15.28-16.21,20.56-26.05l6.44,3.43ZM1140.98,183.42c2.98-1.78,5.85-3.73,8.59-5.81-6.01-4.56-12.6-8.43-19.62-11.47-3.34,8.92-7.35,16.58-11.88,22.59-1.61,2.14-3.28,4.08-5.01,5.81,10.01-2.23,19.41-6.03,27.92-11.12M1043.8,183.42c8.5,5.09,17.91,8.89,27.92,11.12-1.73-1.72-3.41-3.67-5.01-5.81-4.54-6.01-8.55-13.68-11.88-22.59-7.02,3.04-13.61,6.91-19.63,11.47,2.75,2.08,5.62,4.03,8.6,5.81M1092.38,158.42c-10.78,0-21.13,1.8-30.74,5.09,3.08,8.27,6.78,15.33,10.92,20.84,5.91,7.89,12.73,12.44,19.82,12.44s13.91-4.56,19.83-12.44c4.14-5.51,7.84-12.57,10.92-20.84-9.61-3.29-19.96-5.09-30.75-5.09M1092.38,45.71c10.8,0,21.16-1.79,30.75-5.08-3.08-8.26-6.78-15.33-10.92-20.84-5.92-7.89-12.74-12.44-19.83-12.44s-13.91,4.56-19.82,12.44c-4.14,5.51-7.84,12.58-10.92,20.84,9.58,3.28,19.94,5.08,30.74,5.08M1064.2,142.66c21.05,0,33.88-10.01,33.88-27.29,0-29.17-43.65-22.82-43.65-30.24,0-1.99,1.29-3.52,6-3.52,7.41,0,16.24,2.59,23.06,7.76l12.7-16.81c-8.94-7.3-20.47-10.94-33.29-10.94-21.52,0-32.6,12.7-32.6,25.99,0,30.94,43.77,23.3,43.77,30.83,0,3.05-4.24,4.24-8.71,4.24-10.58,0-19.42-4.48-25.3-10.12l-12.35,17.64c8.35,7.54,19.76,12.47,36.47,12.47M1148.58,142.66c24.23,0,42.94-16.47,42.94-40.59s-18.71-40.58-42.94-40.58-42.94,16.47-42.94,40.58,18.7,40.59,42.94,40.59M1148.58,121.71c-11.41,0-18.83-8.71-18.83-19.65s7.42-19.64,18.83-19.64,18.83,8.7,18.83,19.64-7.42,19.65-18.83,19.65"/>
    <g class="cls-4">
      <text class="cls-3" transform="translate(1323.3441 249.8209)"><tspan x="0" y="0">14001:2015</tspan></text>
    </g>
    <path class="cls-1" d="M1371.48,141.26h24.08V63.25h-24.08v78.01ZM1381.13,53.92c8.74-16.32,21.81-30,37.64-39.48,15.3-9.16,33.24-14.44,52.35-14.44s37.04,5.28,52.35,14.44c15.81,9.48,28.88,23.15,37.64,39.48l-6.45,3.45c-5.28-9.85-12.26-18.68-20.56-26.06-6.99,5.49-14.73,10.1-23.05,13.63l2.72,9.84-7.1,1.73-2.46-8.95c-10.38,3.55-21.54,5.5-33.09,5.5s-22.71-1.95-33.1-5.5l-2.46,8.95-7.1-1.73,2.72-9.84c-8.31-3.52-16.05-8.14-23.05-13.63-8.3,7.38-15.28,16.21-20.56,26.06l-6.44-3.45ZM1422.52,20.74c-2.98,1.77-5.84,3.72-8.59,5.79,6.02,4.58,12.6,8.45,19.62,11.48,3.34-8.92,7.35-16.58,11.88-22.59,1.61-2.14,3.27-4.09,5.01-5.8-10.01,2.22-19.41,6.02-27.92,11.12M1519.71,20.74c-8.5-5.1-17.91-8.9-27.92-11.12,1.73,1.7,3.41,3.66,5.01,5.8,4.54,6.01,8.55,13.68,11.88,22.59,7.02-3.03,13.6-6.9,19.62-11.48-2.75-2.07-5.61-4.02-8.59-5.79M1561.11,150.22c-8.75,16.32-21.82,30-37.64,39.49-15.31,9.16-33.24,14.44-52.35,14.44s-37.05-5.28-52.35-14.44c-15.82-9.49-28.89-23.16-37.64-39.49l6.44-3.43c5.28,9.84,12.26,18.65,20.56,26.05,6.98-5.49,14.73-10.09,23.05-13.63l-2.72-9.85,7.1-1.71,2.46,8.94c10.39-3.56,21.55-5.52,33.1-5.52s22.68,1.96,33.09,5.52l2.46-8.94,7.1,1.71-2.72,9.85c8.31,3.53,16.06,8.14,23.05,13.63,8.3-7.4,15.28-16.21,20.56-26.05l6.45,3.43ZM1519.71,183.42c2.98-1.78,5.85-3.73,8.59-5.81-6.01-4.56-12.6-8.43-19.62-11.47-3.33,8.92-7.35,16.58-11.88,22.59-1.6,2.14-3.27,4.08-5.01,5.81,10.01-2.23,19.42-6.03,27.92-11.12M1422.52,183.42c8.51,5.09,17.91,8.89,27.92,11.12-1.73-1.72-3.4-3.67-5.01-5.81-4.54-6.01-8.54-13.68-11.88-22.59-7.02,3.04-13.61,6.91-19.62,11.47,2.74,2.08,5.61,4.03,8.59,5.81M1471.12,158.42c-10.79,0-21.14,1.8-30.75,5.09,3.08,8.27,6.78,15.33,10.92,20.84,5.92,7.89,12.74,12.44,19.83,12.44s13.91-4.56,19.82-12.44c4.14-5.51,7.84-12.57,10.92-20.84-9.61-3.29-19.96-5.09-30.74-5.09M1471.12,45.71c10.8,0,21.16-1.79,30.74-5.08-3.08-8.26-6.78-15.33-10.92-20.84-5.91-7.89-12.73-12.44-19.82-12.44s-13.91,4.56-19.83,12.44c-4.14,5.51-7.84,12.58-10.92,20.84,9.59,3.28,19.95,5.08,30.75,5.08M1442.94,142.66c21.05,0,33.87-10.01,33.87-27.29,0-29.17-43.65-22.82-43.65-30.24,0-1.99,1.29-3.52,6.01-3.52,7.41,0,16.23,2.59,23.06,7.76l12.7-16.81c-8.94-7.3-20.47-10.94-33.29-10.94-21.52,0-32.59,12.7-32.59,25.99,0,30.94,43.77,23.3,43.77,30.83,0,3.05-4.25,4.24-8.72,4.24-10.58,0-19.42-4.48-25.29-10.12l-12.36,17.64c8.36,7.54,19.77,12.47,36.48,12.47M1527.3,142.66c24.23,0,42.94-16.47,42.94-40.59s-18.71-40.58-42.94-40.58-42.94,16.47-42.94,40.58,18.7,40.59,42.94,40.59M1527.3,121.71c-11.4,0-18.82-8.71-18.82-19.65s7.42-19.64,18.82-19.64,18.83,8.7,18.83,19.64-7.42,19.65-18.83,19.65"/>
  </g>
</svg>
