<?xml version="1.0" encoding="UTF-8"?>
<svg id="Camada_2" data-name="Camada 2" xmlns="http://www.w3.org/2000/svg" viewBox="0 0 338.1 105.16">
  <defs>
    <style>
      .cls-1 {
        fill: #f44c03;
      }

      .cls-2 {
        fill: #323232;
      }
    </style>
  </defs>
  <g id="Camada_1-2" data-name="Camada 1">
    <g>
      <g>
        <path class="cls-1" d="M159.9,76.31v-.15c0-.81.15-1.57.46-2.28.3-.72.77-1.31,1.44-1.79.31-.23.7-.43,1.15-.59.42-.13.88-.2,1.37-.2.55,0,1.1.08,1.66.25.56.17,1.08.5,1.54.99.45.47.73,1.11.86,1.92h-1.26c-.14-.66-.45-1.16-.93-1.49-.47-.33-1.03-.5-1.69-.5l-.38.03-.36.04c-.5.1-.94.31-1.32.64-.38.32-.67.75-.87,1.29-.2.51-.29,1.12-.29,1.83s.08,1.29.23,1.8c.15.5.37.93.64,1.28.29.32.6.56.93.72.14.06.32.12.54.17.2.04.38.07.56.07l.05-.03c.85,0,1.53-.24,2.04-.71.49-.47.8-1.11.93-1.95h1.29c-.08.72-.3,1.36-.66,1.93-.36.57-.84,1.02-1.44,1.36-.28.15-.6.28-.97.39-.32.09-.68.13-1.06.13-.73,0-1.38-.13-1.95-.39-.55-.25-1.02-.61-1.38-1.07-.35-.44-.61-.96-.79-1.57-.12-.35-.2-.68-.25-.99-.05-.31-.08-.64-.08-.99v-.15Z"/>
        <path class="cls-1" d="M184.13,78.12c-.17.59-.43,1.14-.78,1.64-.36.52-.85.94-1.46,1.25-.63.31-1.36.47-2.2.47s-1.58-.16-2.2-.47c-.61-.3-1.1-.72-1.46-1.25-.37-.54-.63-1.09-.79-1.65-.16-.58-.24-1.15-.24-1.72s.08-1.15.24-1.72c.14-.55.41-1.1.79-1.64.37-.51.86-.92,1.48-1.23.62-.31,1.35-.47,2.19-.47s1.58.16,2.19.47c.62.31,1.1.72,1.46,1.23.37.52.63,1.06.79,1.64.16.57.24,1.15.24,1.72s-.08,1.15-.24,1.73ZM182.64,74.37c-.26-.58-.64-1.04-1.15-1.38-.5-.33-1.1-.5-1.8-.5s-1.31.17-1.8.5c-.5.34-.89.81-1.15,1.4-.27.59-.4,1.26-.4,2.01s.13,1.42.4,2.03c.27.6.66,1.07,1.17,1.41.49.33,1.09.5,1.79.5s1.3-.17,1.8-.5c.5-.34.89-.81,1.15-1.41.27-.61.4-1.28.4-2.03s-.13-1.43-.4-2.03Z"/>
        <path class="cls-1" d="M197.27,71.56h1.25v9.65h-1.46l-4.93-7.78v7.78h-1.26v-9.65h1.54l4.86,7.81v-7.81Z"/>
        <path class="cls-1" d="M211.2,74.39c0-.23-.03-.44-.09-.62-.06-.17-.16-.34-.29-.52-.26-.29-.56-.5-.89-.63-.39-.13-.77-.19-1.14-.19-.56,0-1.07.12-1.52.36-.46.24-.68.69-.68,1.34s.38,1.03,1.15,1.19l2.75.63c1.45.36,2.17,1.23,2.17,2.6,0,.69-.19,1.26-.56,1.7-.38.44-.85.75-1.44.93-.57.19-1.16.28-1.77.28-1.22,0-2.17-.28-2.86-.83-.68-.55-1.02-1.4-1.02-2.55h1.21c0,.54.13.98.39,1.32.26.34.59.58.98.72.41.15.85.23,1.3.23.38,0,.76-.05,1.15-.15.38-.1.71-.26.97-.5.26-.23.39-.56.39-.98,0-.35-.06-.62-.17-.82-.12-.2-.33-.36-.63-.5-.31-.14-.73-.27-1.23-.39l-1.44-.32c-.44-.1-.85-.24-1.25-.42-.42-.18-.75-.43-.98-.75-.25-.3-.38-.72-.38-1.26s.12-1,.35-1.45c.22-.44.59-.8,1.1-1.09.49-.28,1.12-.42,1.88-.42,1.04,0,1.83.17,2.38.5.54.33.9.72,1.07,1.17.05.13.12.34.2.62l.03.08c.05.24.08.47.08.7h-1.21Z"/>
        <path class="cls-1" d="M219.16,71.58h7.84v1.18h-3.27v8.47h-1.32v-8.47h-3.25v-1.18Z"/>
        <path class="cls-1" d="M233.49,71.55h4.59c.28,0,.54.03.78.09.23.04.48.11.74.23.46.21.83.51,1.1.9.28.39.42.88.42,1.45,0,1.05-.44,1.79-1.33,2.24.37.11.64.3.81.58.17.28.28.61.32.99.04.33.05.78.05,1.34,0,.48.04.86.11,1.13.06.26.2.43.42.5v.21h-1.61c-.12-.34-.17-.84-.17-1.5,0-.62-.02-1.1-.07-1.44-.03-.29-.15-.55-.38-.81-.22-.25-.63-.38-1.21-.38h-3.27v4.12h-1.29v-9.66ZM238.08,75.96c.36,0,.67-.08.93-.23.26-.15.45-.35.56-.6.06-.12.12-.25.16-.39.04-.12.05-.25.05-.4,0-.48-.13-.88-.38-1.18-.26-.31-.67-.47-1.22-.47h-3.41v3.27h3.3Z"/>
        <path class="cls-1" d="M247.98,71.56h1.32v6.29c0,.48.09.91.28,1.27.18.39.45.68.82.87.38.21.83.32,1.36.32.49,0,.94-.1,1.33-.31.39-.21.69-.49.89-.86.21-.38.31-.81.31-1.27v-6.32h1.32v6.48c0,.65-.16,1.24-.48,1.77-.34.54-.81.94-1.41,1.22-.6.29-1.29.44-2.07.44-.63,0-1.22-.13-1.79-.4-.56-.25-1.02-.64-1.36-1.17-.34-.53-.51-1.13-.51-1.81v-6.54Z"/>
        <path class="cls-1" d="M264.41,81.01c-.42-.22-.81-.55-1.18-.97-.37-.42-.65-.93-.85-1.53-.2-.59-.3-1.32-.3-2.17,0-.7.1-1.37.31-2.01.21-.63.51-1.16.9-1.61.39-.45.87-.79,1.44-1.03.56-.23,1.19-.35,1.87-.35.77,0,1.45.15,2.04.44.6.3,1.05.68,1.36,1.14.3.47.49.98.56,1.56h-1.26c-.16-.74-.5-1.26-1.02-1.56-.53-.29-1.09-.43-1.68-.43s-1.11.14-1.6.43c-.48.29-.87.72-1.15,1.29-.28.56-.42,1.27-.42,2.11,0,.62.06,1.15.17,1.61.11.47.29.89.55,1.26.25.38.58.66.99.85.38.2.88.3,1.48.3.36,0,.72-.08,1.1-.23.37-.15.7-.43,1.01-.82.31-.4.53-.94.64-1.61h1.29c-.12.81-.35,1.48-.71,2.01-.36.52-.75.91-1.17,1.17-.4.24-.81.41-1.22.5-.13.03-.31.06-.54.09-.19.03-.36.04-.51.04l-.47.58.42-.05c.41,0,.7.1.87.3.17.2.25.43.25.7,0,.37-.14.67-.43.9-.28.24-.66.36-1.14.36-.38,0-.81-.11-1.29-.32l.21-.52c.34.14.64.21.89.21.18,0,.35-.04.51-.12.15-.1.23-.25.23-.46,0-.19-.07-.32-.21-.4s-.28-.12-.42-.12c-.13,0-.3.03-.52.09l-.24-.25.68-.91c-.54-.06-1.02-.21-1.45-.44Z"/>
        <path class="cls-1" d="M286.3,78.12c-.17.59-.43,1.14-.78,1.64-.36.52-.85.94-1.46,1.25-.63.31-1.36.47-2.2.47s-1.58-.16-2.2-.47c-.61-.3-1.1-.72-1.46-1.25-.37-.54-.63-1.09-.79-1.65-.16-.58-.24-1.15-.24-1.72s.08-1.15.24-1.72c.14-.55.41-1.1.79-1.64.37-.51.86-.92,1.48-1.23.62-.31,1.35-.47,2.19-.47s1.58.16,2.19.47c.62.31,1.1.72,1.46,1.23.37.52.63,1.06.79,1.64.16.57.24,1.15.24,1.72s-.08,1.15-.24,1.73ZM284.81,74.37c-.26-.58-.64-1.04-1.15-1.38-.5-.33-1.1-.5-1.8-.5s-1.31.17-1.8.5c-.5.34-.89.81-1.15,1.4-.27.59-.4,1.26-.4,2.01s.13,1.42.4,2.03c.27.6.66,1.07,1.17,1.41.49.33,1.09.5,1.79.5s1.3-.17,1.8-.5c.5-.34.89-.81,1.15-1.41.27-.61.4-1.28.4-2.03s-.13-1.43-.4-2.03ZM284.26,69.04c-.04.4-.17.75-.42,1.05-.23.29-.54.43-.93.43-.17,0-.31-.02-.42-.05l-.54-.19-.55-.19s-.11-.03-.19-.05c-.04,0-.06,0-.08-.01h-.19c-.3,0-.51.2-.63.6h-.63c.13-.97.59-1.45,1.4-1.45.16,0,.32.02.47.07l.66.21c.27.12.5.19.7.21.24,0,.41-.06.5-.17.09-.12.15-.27.19-.46h.66Z"/>
        <path class="cls-1" d="M300.14,81.21h-7.1v-9.65h7.02v1.18h-5.73v2.94h5.29v1.15h-5.29v3.22h5.81v1.15Z"/>
        <path class="cls-1" d="M312.82,74.37c0-.23-.03-.44-.09-.62-.06-.17-.16-.34-.29-.52-.26-.29-.56-.5-.89-.63-.39-.13-.77-.19-1.14-.19-.56,0-1.07.12-1.52.36-.46.24-.68.69-.68,1.34s.38,1.03,1.15,1.19l2.75.63c1.45.36,2.17,1.23,2.17,2.6,0,.69-.19,1.26-.56,1.7-.38.44-.85.75-1.44.93-.57.19-1.16.28-1.77.28-1.22,0-2.17-.28-2.86-.83-.68-.55-1.02-1.4-1.02-2.55h1.21c0,.54.13.98.39,1.32.26.34.59.58.98.72.41.15.85.23,1.3.23.38,0,.76-.05,1.15-.15.38-.1.71-.26.97-.5.26-.23.39-.56.39-.98,0-.35-.06-.62-.17-.82-.12-.2-.33-.36-.63-.5-.31-.14-.73-.27-1.23-.39l-1.44-.32c-.44-.1-.85-.24-1.25-.42-.42-.18-.75-.43-.98-.75-.25-.3-.38-.72-.38-1.26s.12-1,.35-1.45c.22-.44.59-.8,1.1-1.09.49-.28,1.12-.42,1.88-.42,1.04,0,1.83.17,2.38.5.54.33.9.72,1.07,1.17.05.13.12.34.2.62l.03.08c.05.24.08.47.08.7h-1.21Z"/>
        <path class="cls-1" d="M168,97.32h-1.53l-.91-1.1c-.2.24-.43.47-.7.67-.26.21-.56.36-.91.47-.35.12-.75.17-1.19.17-1.11,0-1.91-.36-2.39-1.07-.13-.21-.25-.47-.34-.75-.09-.24-.13-.51-.13-.81,0-.27.03-.51.09-.72.05-.21.13-.42.24-.63.29-.53.91-1.05,1.87-1.57l-.62-.82-.04-.08c-.04-.08-.08-.15-.11-.21-.04-.08-.09-.19-.15-.34-.04-.11-.06-.21-.08-.32-.02-.14-.03-.27-.03-.39,0-.36.09-.71.27-1.05.17-.33.43-.6.78-.81.33-.2.74-.3,1.23-.3s.89.09,1.22.28c.34.19.58.43.73.74.15.31.23.64.23.98,0,.39-.09.76-.27,1.09-.19.34-.39.61-.62.81-.22.2-.51.41-.85.64l1.76,2.09c.14-.38.27-.89.39-1.52h1.1c0,.38-.07.78-.2,1.18-.13.39-.31.82-.55,1.29l1.7,2.07ZM162.75,92.78c-.32.21-.64.43-.95.67-.21.18-.38.38-.51.62-.13.23-.19.51-.19.83,0,.35.1.65.31.9.2.25.44.43.72.54.27.11.5.16.7.16.89,0,1.59-.36,2.09-1.07l-2.17-2.64ZM164.06,90.66c.21-.23.31-.53.31-.9s-.1-.64-.31-.82c-.21-.17-.44-.26-.71-.26-.43,0-.73.11-.89.34-.16.22-.24.47-.24.72s.1.56.31.87c.21.33.42.6.63.81.38-.26.68-.51.9-.77Z"/>
        <path class="cls-1" d="M182.28,90.5c0-.23-.03-.44-.09-.62-.06-.17-.16-.34-.29-.52-.26-.29-.56-.5-.89-.63-.39-.13-.77-.19-1.14-.19-.56,0-1.07.12-1.52.36-.46.24-.68.69-.68,1.34s.38,1.03,1.15,1.19l2.75.63c1.45.36,2.17,1.23,2.17,2.6,0,.69-.19,1.26-.56,1.7-.38.44-.85.75-1.44.93-.57.19-1.16.28-1.77.28-1.22,0-2.17-.28-2.86-.83-.68-.55-1.02-1.4-1.02-2.55h1.21c0,.54.13.98.39,1.32.26.34.59.58.98.72.41.15.85.23,1.3.23.38,0,.76-.05,1.15-.15.38-.1.71-.26.97-.5.26-.23.39-.56.39-.98,0-.35-.06-.62-.17-.82-.12-.2-.33-.36-.63-.5-.31-.14-.73-.27-1.23-.39l-1.44-.32c-.44-.1-.85-.24-1.25-.42-.42-.18-.75-.43-.98-.75-.25-.3-.38-.72-.38-1.26s.12-1,.35-1.45c.22-.44.59-.8,1.1-1.09.49-.28,1.12-.42,1.88-.42,1.04,0,1.83.17,2.38.5.54.33.9.72,1.07,1.17.05.13.12.34.2.62l.03.08c.05.24.08.47.08.7h-1.21Z"/>
        <path class="cls-1" d="M197.34,97.32h-7.1v-9.65h7.02v1.18h-5.73v2.94h5.29v1.15h-5.29v3.22h5.81v1.15Z"/>
        <path class="cls-1" d="M203.77,87.65h4.59c.28,0,.54.03.78.09.23.04.48.11.74.23.46.21.83.51,1.1.9.28.39.42.88.42,1.45,0,1.05-.44,1.79-1.33,2.24.37.11.64.3.81.58.17.28.28.61.32.99.04.33.05.78.05,1.34,0,.48.04.86.11,1.13.06.26.2.43.42.5v.21h-1.61c-.12-.34-.17-.84-.17-1.5,0-.62-.02-1.1-.07-1.44-.03-.29-.15-.55-.38-.81-.22-.25-.63-.38-1.21-.38h-3.27v4.12h-1.29v-9.66ZM208.36,92.07c.36,0,.67-.08.93-.23.26-.15.45-.35.56-.6.06-.12.12-.25.16-.39.04-.12.05-.25.05-.4,0-.48-.13-.88-.38-1.18-.26-.31-.67-.47-1.22-.47h-3.41v3.27h3.3Z"/>
        <path class="cls-1" d="M225.2,87.67h1.46l-3.5,9.65h-1.4l-3.5-9.65h1.44l2.78,8.24,2.72-8.24Z"/>
        <path class="cls-1" d="M234.48,97.31h-1.32v-9.65h1.32v9.65Z"/>
        <path class="cls-1" d="M243.29,97.12c-.42-.22-.81-.55-1.18-.97-.37-.42-.65-.93-.85-1.53-.2-.59-.3-1.32-.3-2.17,0-.7.1-1.37.31-2.01.21-.63.51-1.16.9-1.61.39-.45.87-.79,1.44-1.03.56-.23,1.19-.35,1.87-.35.77,0,1.45.15,2.04.44.6.3,1.05.68,1.36,1.14.3.47.49.98.56,1.56h-1.26c-.16-.74-.5-1.26-1.02-1.56-.53-.29-1.09-.43-1.68-.43s-1.11.14-1.6.43c-.48.29-.87.72-1.15,1.29-.28.56-.42,1.27-.42,2.11,0,.62.06,1.15.17,1.61.11.47.29.89.55,1.26.25.38.58.66.99.85.38.2.88.3,1.48.3.36,0,.72-.08,1.1-.23.37-.15.7-.43,1.01-.82.31-.4.53-.94.64-1.61h1.29c-.12.81-.35,1.48-.71,2.01-.36.52-.75.91-1.17,1.17-.4.24-.81.41-1.22.5-.13.03-.31.06-.54.09-.19.03-.36.04-.51.04l-.47.58.42-.05c.41,0,.7.1.87.3.17.2.25.43.25.7,0,.37-.14.67-.43.9-.28.24-.66.36-1.14.36-.38,0-.81-.11-1.29-.32l.21-.52c.34.14.64.21.89.21.18,0,.35-.04.51-.12.15-.1.23-.25.23-.46,0-.19-.07-.32-.21-.4s-.28-.12-.42-.12c-.13,0-.3.03-.52.09l-.24-.25.68-.91c-.54-.06-1.02-.21-1.45-.44Z"/>
        <path class="cls-1" d="M265.18,94.23c-.17.59-.43,1.14-.78,1.64-.36.52-.85.94-1.46,1.25-.63.31-1.36.47-2.2.47s-1.58-.16-2.2-.47c-.61-.3-1.1-.72-1.46-1.25-.37-.54-.63-1.09-.79-1.65-.16-.58-.24-1.15-.24-1.72s.08-1.15.24-1.72c.14-.55.41-1.1.79-1.64.37-.51.86-.92,1.48-1.23.62-.31,1.35-.47,2.19-.47s1.58.16,2.19.47c.62.31,1.1.72,1.46,1.23.37.52.63,1.06.79,1.64.16.57.24,1.15.24,1.72s-.08,1.15-.24,1.73ZM263.7,90.47c-.26-.58-.64-1.04-1.15-1.38-.5-.33-1.1-.5-1.8-.5s-1.31.17-1.8.5c-.5.34-.89.81-1.15,1.4-.27.59-.4,1.26-.4,2.01s.13,1.42.4,2.03c.27.6.66,1.07,1.17,1.41.49.33,1.09.5,1.79.5s1.3-.17,1.8-.5c.5-.34.89-.81,1.15-1.41.27-.61.4-1.28.4-2.03s-.13-1.43-.4-2.03Z"/>
        <path class="cls-1" d="M278.11,90.5c0-.23-.03-.44-.09-.62-.06-.17-.16-.34-.29-.52-.26-.29-.56-.5-.89-.63-.39-.13-.77-.19-1.14-.19-.56,0-1.07.12-1.52.36-.46.24-.68.69-.68,1.34s.38,1.03,1.15,1.19l2.75.63c1.45.36,2.17,1.23,2.17,2.6,0,.69-.19,1.26-.56,1.7-.38.44-.85.75-1.44.93-.57.19-1.16.28-1.77.28-1.22,0-2.17-.28-2.86-.83-.68-.55-1.02-1.4-1.02-2.55h1.21c0,.54.13.98.39,1.32.26.34.59.58.98.72.41.15.85.23,1.3.23.38,0,.76-.05,1.15-.15.38-.1.71-.26.97-.5.26-.23.39-.56.39-.98,0-.35-.06-.62-.17-.82-.12-.2-.33-.36-.63-.5-.31-.14-.73-.27-1.23-.39l-1.44-.32c-.44-.1-.85-.24-1.25-.42-.42-.18-.75-.43-.98-.75-.25-.3-.38-.72-.38-1.26s.12-1,.35-1.45c.22-.44.59-.8,1.1-1.09.49-.28,1.12-.42,1.88-.42,1.04,0,1.83.17,2.38.5.54.33.9.72,1.07,1.17.05.13.12.34.2.62l.03.08c.05.24.08.47.08.7h-1.21Z"/>
      </g>
      <g>
        <path class="cls-2" d="M162.55,5.14c-.54.23-1,.53-1.39.94-.39.4-.71.88-.93,1.42-.22.54-.34,1.12-.34,1.73v37.57c0,2.55.46,4.72,1.37,6.45.92,1.75,2.07,3.18,3.43,4.27,1.37,1.09,2.87,1.88,4.47,2.36,1.63.48,3.14.73,4.49.73h36.75v-8.77h-36.67c-1.61,0-2.87-.44-3.75-1.32-.88-.88-1.32-2.12-1.32-3.71V13.57h41.74V4.8h-46.08c-.63,0-1.23.11-1.77.34Z"/>
        <rect class="cls-2" x="174.47" y="28.27" width="31.24" height="8.85"/>
        <path class="cls-2" d="M230.87,4.8h-8.77v51.37c0,.64.11,1.23.34,1.77.22.54.53,1.01.92,1.4s.86.7,1.4.92c.54.22,1.13.34,1.77.34h46.68v-8.77h-42.34V4.8Z"/>
        <path class="cls-2" d="M336.31,15.2c-.63-1.37-1.43-2.7-2.39-3.95-.94-1.24-2.11-2.34-3.46-3.29-1.35-.95-2.94-1.72-4.73-2.29-1.78-.57-3.82-.86-6.08-.86h-23.55c-1.36,0-2.87.25-4.49.74-1.6.49-3.11,1.28-4.48,2.36-1.36,1.07-2.51,2.5-3.42,4.26-.91,1.74-1.37,3.9-1.37,6.43v42h8.77V18.6c0-1.58.44-2.83,1.32-3.71.88-.88,2.14-1.32,3.75-1.32h23.47c1.47,0,2.79.24,3.93.73,1.14.48,2.13,1.16,2.94,2.01.81.85,1.45,1.88,1.91,3.07.45,1.16.75,2.44.89,3.82v4.81c0,1.43-.23,2.74-.7,3.89-.47,1.16-1.14,2.16-1.99,2.99-.85.82-1.87,1.47-3.04,1.95-1.15.47-2.46.77-3.87.88h-22.8v8.77h22.73c1.22,0,2.55-.14,3.94-.42,1.39-.28,2.79-.73,4.15-1.35,1.37-.61,2.69-1.42,3.94-2.38,1.24-.96,2.35-2.13,3.3-3.49.95-1.35,1.71-2.94,2.27-4.72.56-1.78.84-3.84.84-6.12v-4.73c0-1.22-.14-2.55-.42-3.94-.28-1.39-.74-2.78-1.36-4.15Z"/>
      </g>
    </g>
    <g>
      <polygon class="cls-1" points="95.11 96.96 18.48 96.96 15.99 105.16 101.19 105.16 109.44 78.09 102.48 72.77 95.11 96.96"/>
      <polygon class="cls-1" points="54.1 8.2 122.16 8.2 111.87 41.97 118.82 47.29 133.23 0 48.03 0 29.84 59.73 39.57 55.92 54.1 8.2"/>
      <polygon class="cls-1" points="97.68 44.76 3.05 81.76 0 91.76 96.35 54.09 131.54 81.03 131.6 80.95 134.12 72.67 97.68 44.76"/>
    </g>
  </g>
</svg>