<?xml version="1.0" encoding="UTF-8"?>
<svg id="Camada_2" data-name="Camada 2" xmlns="http://www.w3.org/2000/svg" viewBox="0 0 184.08 203.04">
  <defs>
    <style>
      .cls-1 {
        fill: #26373f;
      }

      .cls-2 {
        fill: #ee3342;
      }
    </style>
  </defs>
  <g id="Layer_1" data-name="Layer 1">
    <g>
      <g>
        <polygon class="cls-2" points="73.35 94.33 73.35 103.1 51.77 103.1 47.1 98.43 47.1 39.02 55.86 39.02 55.86 94.33 73.35 94.33"/>
        <polygon class="cls-2" points="136.97 4.67 136.97 30.33 128.21 30.33 128.21 8.76 55.87 8.76 55.87 30.33 47.1 30.33 47.1 4.67 51.77 0 132.31 0 136.97 4.67"/>
        <polygon class="cls-2" points="90.8 88.82 90.8 94.33 128.21 94.33 128.21 74.87 114.24 88.82 101.85 88.82 136.97 53.71 136.97 98.43 132.31 103.1 82.03 103.1 82.03 85.2 128.21 39.02 136.97 39.02 136.97 42.64 90.8 88.82"/>
        <polygon class="cls-2" points="64.55 77.91 64.55 81.53 73.32 81.53 119.5 35.36 119.5 17.45 64.55 17.45 64.55 66.84 99.68 31.73 87.28 31.73 73.32 45.68 73.32 26.22 110.73 26.22 110.73 31.73 64.55 77.91"/>
      </g>
      <g>
        <g>
          <g>
            <path class="cls-2" d="M3.73,197.8l-1.75-.12c-.47-.05-.73-.22-.73-.65s.25-.64.72-.64h3.31v-1.17H1.9c-1.08,0-1.9.66-1.9,1.82s.74,1.71,1.83,1.79l1.72.13c.43.04.71.2.71.64s-.26.65-.68.65H.16v1.17h3.51c1.09,0,1.84-.74,1.84-1.84s-.71-1.7-1.77-1.78Z"/>
            <path class="cls-2" d="M11.25,198.8c0-1.44-1.07-2.55-2.52-2.55h-.03c-1.45,0-2.56,1.11-2.56,2.63s1.12,2.65,2.59,2.65h.03c1.34,0,2.21-.83,2.44-1.93h-1.2c-.16.5-.58.85-1.23.85h-.02c-.81,0-1.36-.56-1.43-1.31h3.94v-.34ZM7.42,198.12c.16-.45.62-.8,1.28-.8h.03c.72,0,1.14.35,1.26.8h-2.57Z"/>
            <path class="cls-2" d="M14.53,196.36h-2.38v5.07h1.15v-4.01h.98c.48,0,.71.25.71.71v.61h1.15v-.81c0-.99-.57-1.58-1.61-1.58Z"/>
            <path class="cls-2" d="M20.71,196.36l-1.5,3.94-1.52-3.94h-1.27l2.05,5.07h1.45l2.04-5.07h-1.25Z"/>
            <path class="cls-2" d="M22.68,196.36v5.07h1.15v-5.07h-1.15ZM22.67,194.93v1.04h1.17v-1.04h-1.17Z"/>
            <path class="cls-2" d="M27.4,197.42h1.75v-1.06h-1.85c-1.48,0-2.59.86-2.59,2.53s1.11,2.53,2.59,2.53h1.85v-1.06h-1.75c-.91,0-1.5-.46-1.5-1.48s.59-1.47,1.5-1.47Z"/>
            <path class="cls-2" d="M32.32,196.25h-.03c-1.48,0-2.61,1.14-2.61,2.63s1.13,2.65,2.61,2.65h.03c1.49,0,2.6-1.15,2.6-2.65s-1.11-2.63-2.6-2.63ZM32.32,200.42h0c-.86,0-1.48-.62-1.48-1.55s.62-1.53,1.48-1.53h0c.83,0,1.45.61,1.45,1.53s-.62,1.55-1.45,1.55Z"/>
            <path class="cls-2" d="M42.11,194.93v1.42h-1.21c-1.58,0-2.6.88-2.6,2.53s1.03,2.53,2.63,2.53h2.33v-6.49h-1.15ZM42.11,200.36h-1.11c-1,0-1.54-.49-1.54-1.48s.55-1.47,1.54-1.47h1.11v2.95Z"/>
            <path class="cls-2" d="M49.26,198.8c0-1.44-1.07-2.55-2.52-2.55h-.03c-1.45,0-2.56,1.11-2.56,2.63s1.12,2.65,2.59,2.65h.02c1.34,0,2.22-.83,2.44-1.93h-1.2c-.16.5-.58.85-1.23.85h-.02c-.81,0-1.36-.56-1.43-1.31h3.94v-.34ZM45.42,198.12c.16-.45.62-.8,1.28-.8h.03c.72,0,1.14.35,1.26.8h-2.57Z"/>
            <path class="cls-2" d="M56.68,195.23h-1.91l-2.59,6.2h1.33l.67-1.6h3.05l.65,1.6h1.37l-2.57-6.2ZM54.61,198.7l1.08-2.61,1.09,2.61h-2.17Z"/>
            <path class="cls-2" d="M62.36,196.36h-2.38v6.44h1.15v-1.38h1.19c1.63,0,2.62-.93,2.62-2.53s-.98-2.53-2.58-2.53ZM62.26,200.35h-1.13v-2.94h1.13c.97,0,1.52.48,1.52,1.47s-.54,1.47-1.52,1.47Z"/>
            <path class="cls-2" d="M68.23,196.25h-.03c-1.48,0-2.61,1.14-2.61,2.63s1.13,2.65,2.61,2.65h.03c1.49,0,2.61-1.15,2.61-2.65s-1.11-2.63-2.61-2.63ZM68.23,200.42h0c-.85,0-1.47-.62-1.47-1.55s.62-1.53,1.47-1.53h0c.83,0,1.45.61,1.45,1.53s-.62,1.55-1.45,1.55Z"/>
            <path class="cls-2" d="M71.72,196.36v5.07h1.15v-5.07h-1.15ZM71.72,194.93v1.04h1.18v-1.04h-1.18Z"/>
            <path class="cls-2" d="M76.41,196.25h-.03c-1.48,0-2.61,1.14-2.61,2.63s1.13,2.65,2.61,2.65h.03c1.49,0,2.6-1.15,2.6-2.65s-1.11-2.63-2.6-2.63ZM76.41,200.42h0c-.86,0-1.48-.62-1.48-1.55s.62-1.53,1.48-1.53h0c.83,0,1.45.61,1.45,1.53s-.62,1.55-1.45,1.55Z"/>
            <path class="cls-2" d="M87.49,198.8c0-1.44-1.07-2.55-2.53-2.55h-.03c-1.45,0-2.56,1.11-2.56,2.63s1.12,2.65,2.59,2.65h.03c1.34,0,2.21-.83,2.44-1.93h-1.2c-.16.5-.58.85-1.23.85h-.02c-.81,0-1.36-.56-1.43-1.31h3.94v-.34ZM83.66,198.12c.16-.45.62-.8,1.28-.8h.03c.72,0,1.14.35,1.26.8h-2.57Z"/>
            <path class="cls-2" d="M93.17,197.87v1.18h2.23v1.2h-1.55c-1.12,0-1.9-.69-1.9-1.92s.78-1.93,1.9-1.93h2.76v-1.17h-2.82c-1.85,0-3.09,1.17-3.09,3.1s1.25,3.1,3.09,3.1h2.85v-3.55h-3.48Z"/>
            <path class="cls-2" d="M102.69,198.8c0-1.44-1.07-2.55-2.53-2.55h-.02c-1.45,0-2.56,1.11-2.56,2.63s1.12,2.65,2.58,2.65h.03c1.34,0,2.22-.83,2.44-1.93h-1.2c-.16.5-.58.85-1.23.85h-.02c-.81,0-1.36-.56-1.43-1.31h3.94v-.34ZM98.86,198.12c.16-.45.62-.8,1.28-.8h.02c.71,0,1.14.35,1.26.8h-2.57Z"/>
            <path class="cls-2" d="M106.37,198.36l-1.32-.02c-.33,0-.5-.16-.5-.46,0-.28.18-.47.5-.47h2.74v-1.07h-2.84c-.92,0-1.62.52-1.62,1.54,0,.95.62,1.52,1.62,1.53l1.3.02c.33,0,.51.17.51.46s-.19.47-.51.47h-2.75v1.07h2.87c.96,0,1.61-.56,1.61-1.56,0-.94-.58-1.49-1.61-1.5Z"/>
            <path class="cls-2" d="M112.99,197.42v-1.06h-1.76v-1.42h-1.15v1.42h-1.55v1.06h1.55v2.78c0,.81.47,1.23,1.25,1.23h1.63v-1.07h-1.2c-.38,0-.53-.19-.53-.54v-2.4h1.76Z"/>
            <path class="cls-2" d="M116.63,196.35h-2.75v1.07h2.54c.51,0,.69.18.69.62v.34h-1.77c-1,0-1.63.49-1.63,1.5s.66,1.54,1.65,1.54h2.9v-3.57c0-.89-.48-1.5-1.63-1.5ZM117.11,200.43h-1.71c-.33,0-.53-.19-.53-.55,0-.38.2-.55.53-.55h1.71v1.1Z"/>
            <path class="cls-2" d="M121.77,196.25h-.03c-1.48,0-2.61,1.14-2.61,2.63s1.13,2.65,2.61,2.65h.03c1.49,0,2.6-1.15,2.6-2.65s-1.11-2.63-2.6-2.63ZM121.77,200.42h0c-.86,0-1.48-.62-1.48-1.55s.62-1.53,1.48-1.53h0c.83,0,1.45.61,1.45,1.53s-.62,1.55-1.45,1.55Z"/>
            <path class="cls-2" d="M133.08,196.4v-1.17h-4.97v6.2h4.97v-1.17h-3.72v-1.34h3.72v-1.18h-3.72v-1.33h3.72Z"/>
            <path class="cls-2" d="M140.01,196.36h-5.77v5.07h1.15v-3.97h2.06v3.97h1.15v-3.97h1.19c.58,0,.86.31.86.88v3.09h1.15v-3.31c0-1.1-.65-1.76-1.78-1.76Z"/>
            <path class="cls-2" d="M145.33,196.36h-2.38v6.44h1.15v-1.38h1.19c1.63,0,2.62-.93,2.62-2.53s-.98-2.53-2.58-2.53ZM145.23,200.35h-1.13v-2.94h1.13c.97,0,1.52.48,1.52,1.47s-.54,1.47-1.52,1.47Z"/>
            <path class="cls-2" d="M151.18,196.36h-2.38v5.07h1.15v-4.01h.98c.49,0,.71.25.71.71v.61h1.15v-.81c0-.99-.57-1.58-1.61-1.58Z"/>
            <path class="cls-2" d="M158.46,198.8c0-1.44-1.07-2.55-2.52-2.55h-.03c-1.45,0-2.56,1.11-2.56,2.63s1.12,2.65,2.59,2.65h.03c1.34,0,2.21-.83,2.44-1.93h-1.2c-.16.5-.58.85-1.23.85h-.02c-.81,0-1.36-.56-1.43-1.31h3.94v-.34ZM154.63,198.12c.16-.45.62-.8,1.28-.8h.03c.71,0,1.14.35,1.26.8h-2.57Z"/>
            <path class="cls-2" d="M162.15,198.36l-1.32-.02c-.33,0-.5-.16-.5-.46,0-.28.18-.47.5-.47h2.74v-1.07h-2.83c-.92,0-1.62.52-1.62,1.54,0,.95.62,1.52,1.62,1.53l1.3.02c.34,0,.51.17.51.46s-.18.47-.51.47h-2.74v1.07h2.87c.96,0,1.61-.56,1.61-1.56,0-.94-.57-1.49-1.61-1.5Z"/>
            <path class="cls-2" d="M167.4,196.35h-2.75v1.07h2.54c.51,0,.69.18.69.62v.34h-1.77c-1,0-1.63.49-1.63,1.5s.66,1.54,1.65,1.54h2.9v-3.57c0-.89-.48-1.5-1.63-1.5ZM167.88,200.43h-1.71c-.33,0-.53-.19-.53-.55,0-.38.2-.55.53-.55h1.71v1.1Z"/>
            <path class="cls-2" d="M172.59,196.36h-2.38v5.07h1.15v-4.01h.98c.48,0,.71.25.71.71v.61h1.15v-.81c0-.99-.57-1.58-1.61-1.58Z"/>
            <path class="cls-2" d="M175.07,196.36v5.07h1.15v-5.07h-1.15ZM175.07,194.93v1.04h1.17v-1.04h-1.17Z"/>
            <path class="cls-2" d="M180.11,196.35h-2.75v1.07h2.54c.51,0,.69.18.69.62v.34h-1.77c-1,0-1.63.49-1.63,1.5s.66,1.54,1.65,1.54h2.9v-3.57c0-.89-.48-1.5-1.63-1.5ZM180.58,200.43h-1.71c-.33,0-.53-.19-.53-.55,0-.38.2-.55.53-.55h1.71v1.1Z"/>
            <path class="cls-2" d="M182.91,194.93v6.49h1.17v-6.49h-1.17Z"/>
          </g>
          <g>
            <path class="cls-2" d="M26,203.04c.08-.08.14-.15.2-.22.3-.33.61-.66.91-.99.02-.02.04-.04.07-.04.27,0,.54,0,.82,0-.01.02-.02.04-.03.05-.32.39-.64.78-.96,1.16-.02.02-.04.04-.06.04-.31,0-.62,0-.94,0Z"/>
            <path class="cls-2" d="M114.87,195.79h-.64c0-.16.03-.31.1-.46.2-.44.61-.68,1.1-.66.25.01.47.11.68.23.14.08.27.18.42.25.36.18.72-.04.79-.42,0-.04.02-.07.07-.06.18,0,.36,0,.54,0,.01,0,.03,0,.05,0-.01.33-.13.62-.37.85-.34.34-.97.4-1.39.14-.17-.1-.33-.21-.5-.31-.17-.1-.34-.1-.52-.03-.18.07-.28.21-.32.4,0,.02,0,.03,0,.05Z"/>
          </g>
        </g>
        <g>
          <path class="cls-1" d="M8.41,174.79v-50.49H0v52.6l5.8,5.8h42.12v-7.9H8.41Z"/>
          <path class="cls-1" d="M110.26,129.08c-3.08-3.19-7.53-4.78-13.35-4.78h-31.31l-5.96,5.96v52.44h8.23v-22.38h29.03c5.82,0,10.27-1.59,13.35-4.78,3.08-3.19,4.62-7.58,4.62-13.18s-1.54-10.08-4.62-13.27ZM104.07,150c-1.72,1.66-4.38,2.49-7.99,2.49h-28.2v-20.38h28.2c3.61,0,6.27.85,7.99,2.54,1.72,1.69,2.58,4.26,2.58,7.7s-.86,5.99-2.58,7.65Z"/>
          <path class="cls-1" d="M145.82,151.83v7.9h29.95v15.05h-23.21c-6.38,0-11.46-1.87-15.26-5.61-3.8-3.74-5.7-9-5.7-15.76s1.9-11.99,5.7-15.68c3.8-3.69,8.89-5.53,15.26-5.53h31.03v-7.9h-31.44c-5.71,0-10.75,1.16-15.1,3.49-4.35,2.33-7.72,5.69-10.11,10.06-2.38,4.38-3.58,9.59-3.58,15.64s1.21,11.17,3.62,15.55c2.41,4.38,5.78,7.75,10.1,10.11,4.33,2.36,9.34,3.54,15.06,3.54h25.62l6.15-6.15v-24.71h-38.1Z"/>
        </g>
      </g>
    </g>
  </g>
</svg>