<?xml version="1.0" encoding="UTF-8"?>
<svg id="Camada_2" data-name="Camada 2" xmlns="http://www.w3.org/2000/svg" viewBox="0 0 590.18 344.27">
  <defs>
    <style>
      .cls-1 {
        fill: #ff5d00;
      }

      .cls-2 {
        fill: #0f0f0f;
      }
    </style>
  </defs>
  <g id="Camada_1-2" data-name="Camada 1">
    <g>
      <g>
        <path class="cls-2" d="M0,304.22c0-20.03,14.52-40.05,37.08-40.05s37.08,20.03,37.08,40.05-14.52,40.05-37.08,40.05S0,324.25,0,304.22ZM65.58,304.22c0-15.95-10.89-32.35-28.39-32.35s-28.61,16.39-28.61,32.35,11.11,32.35,28.61,32.35,28.39-16.39,28.39-32.35Z"/>
        <path class="cls-2" d="M90.11,265.71h51.49v7.7h-42.91v26.96h41.37v7.7h-41.37v34.66h-8.58v-77.02Z"/>
        <path class="cls-2" d="M157.01,265.71h51.49v7.7h-42.91v26.96h41.37v7.7h-41.37v34.66h-8.58v-77.02Z"/>
        <path class="cls-2" d="M224.45,265.71h8.58v77.02h-8.58v-77.02Z"/>
        <path class="cls-2" d="M249.54,304.22c0-20.47,13.75-40.05,36.42-40.05,16.72,0,28.06,9.46,32.13,23.11h-8.8c-3.74-9.02-10.89-15.4-23.33-15.4-18.04,0-27.84,16.28-27.84,32.35s9.79,32.35,27.84,32.35c12.43,0,19.59-6.38,23.33-15.4h8.8c-4.07,13.64-15.4,23.11-32.13,23.11-22.67,0-36.42-19.58-36.42-40.05Z"/>
        <path class="cls-2" d="M334.48,265.71h53.25v7.7h-44.67v25.86h43.13v7.7h-43.13v28.06h45.55v7.7h-54.13v-77.02Z"/>
        <path class="cls-2" d="M442.2,275.61l-19.15,12.87v-8.47l20.58-14.3h7.04v77.02h-8.47v-67.12Z"/>
        <path class="cls-2" d="M466.62,316.1l36.97-50.39h9.24v50.28h11.33v6.93h-11.33v19.8h-7.81v-19.8h-38.4v-6.82ZM505.02,315.99v-41.15l-29.6,41.15h29.6Z"/>
        <path class="cls-2" d="M535.83,323.26h8.47c2.09,7.59,8.47,13.64,18.16,13.64,11.11,0,19.36-7.37,19.36-19.36,0-10.56-7.59-19.25-19.36-19.25-7.92,0-13.86,4.07-16.83,9.46h-8.58l5.61-42.03h41.81v7.37h-34.88l-3.41,25.75c2.86-4.51,9.13-7.92,17.38-7.92,14.3,0,26.63,10.67,26.63,26.52s-11.88,26.85-27.73,26.85c-13.75,0-23.88-8.69-26.63-21.01Z"/>
      </g>
      <g>
        <polygon class="cls-1" points="326.49 122.34 421.81 169.89 421.81 210.47 347.71 212.47 347.71 201.13 348.09 201.12 411 199.43 411 194.07 342.35 195.92 342.35 217.97 427.17 215.69 427.17 166.58 331.85 119.03 331.85 59.69 427.17 122.06 427.17 115.66 326.49 49.78 326.49 122.34"/>
        <path class="cls-1" d="M315.67,48.16l-5.36,1.64v94.43l-93.26,6.03v-71.94l-5.36,1.64v76.02l98.62-6.37v68.84l21.53.66v-76.26l-16.18,1.04V48.16ZM326.49,148.55v65.01l-10.82-.23v-64.08l10.82-.7Z"/>
        <polygon class="cls-1" points="326.75 0 179.19 53.7 179.19 59.41 325.68 6.09 325.89 6.09 326.34 6.43 421.81 79.3 421.81 95.37 324.79 31.88 168.37 79.71 168.37 57.64 163.01 59.59 163.01 86.95 323.96 37.74 427.17 105.28 427.17 76.65 326.75 0"/>
        <polygon class="cls-1" points="179.19 209.04 168.37 208.72 168.37 99.62 163.01 101.26 163.01 213.91 184.55 214.57 184.55 88.24 179.19 89.88 179.19 209.04"/>
      </g>
    </g>
  </g>
</svg>